<?xml version="1.0" standalone="yes"?>
<svg xmlns="http://www.w3.org/2000/svg" width="800" height="800">
<path style="fill:#313131; stroke:none;" d="M0 0L0 800L800 800L800 0L0 0z"/>
<path style="fill:#436970; stroke:none;" d="M365 182L365 183L369 183L365 182z"/>
<path style="fill:#facb20; stroke:none;" d="M358 402C358 410.272 356.446 420.416 360.442 427.999C362.523 431.947 366.636 434.207 368.683 438.09C370.965 442.417 370.887 447.578 373.349 452C379.809 463.603 393.149 468.821 406 466.674C422.358 463.942 425.53 452.038 430.89 439.039C432.705 434.636 437.333 432.221 439.558 427.999C443.554 420.416 442 410.272 442 402C457.584 399.187 460.097 385.549 468.699 375.275C472.866 370.298 480.976 368.163 485.961 363.7C498.18 352.759 504.452 335.226 502.829 319C501.994 310.646 494.258 300.942 494.517 293.424C494.663 289.181 498.926 284.139 500.254 280C503.308 270.484 503.756 260.733 501.575 251C498.843 238.811 491.878 228.291 482 220.681C478.124 217.694 472.806 216.121 469.418 212.61C465.841 208.902 464.652 203.128 461.471 199C453.632 188.83 442.612 183.541 430 182.301C418.541 181.174 409.951 190.88 400 190.88C390.538 190.88 381.842 181.635 371 182.209C358.137 182.891 346.41 188.775 338.529 199C335.348 203.128 334.159 208.902 330.582 212.61C326.341 217.005 319.66 219.014 315 223.174C302.312 234.5 295.069 251.913 297.289 269C298.358 277.224 305.222 285.979 305.483 293.576C305.725 300.6 298.3 310.225 297.289 318C295.151 334.452 301.66 352.615 314.039 363.7C318.958 368.104 325.98 370.059 330.582 374.498C340.542 384.108 341.468 399.016 358 402z"/>
<path style="fill:#436970; stroke:none;" d="M375 182L375 183L379 183L375 182M421 182L421 183L425 183L421 182M431 182L431 183L435 183L431 182M361 183L362 184L361 183z"/>
<path style="fill:#509aa7; stroke:none;" d="M362 183L363 184L362 183z"/>
<path style="fill:#436970; stroke:none;" d="M382.667 183.333L383.333 183.667L382.667 183.333M416.667 183.333L417.333 183.667L416.667 183.333z"/>
<path style="fill:#509aa7; stroke:none;" d="M437 183L438 184L437 183z"/>
<path style="fill:#436970; stroke:none;" d="M438 183L439 184L438 183M358 184L359 185L358 184z"/>
<path style="fill:#509aa7; stroke:none;" d="M385 184L386 185L385 184z"/>
<path style="fill:#436970; stroke:none;" d="M386 184L387 185L386 184M413 184L414 185L413 184z"/>
<path style="fill:#509aa7; stroke:none;" d="M414 184L415 185L414 184z"/>
<path style="fill:#436970; stroke:none;" d="M441 184L442 185L441 184M355 185L356 186L355 185M388 185L389 186L388 185M411 185L412 186L411 185M444 185L445 186L444 185M353 186L354 187L353 186M390 186L391 187L390 186M409 186L410 187L409 186M446 186L447 187L446 186M351 187L352 188L351 187M392 187L393 188L392 187M407 187L408 188L407 187M448 187L449 188L448 187M394 188L395 189L394 188M405 188L406 189L405 188M348 189L349 190L348 189M451 189L452 190L451 189M397 190L398 191L397 190M402 190L403 191L402 190M345 191L346 192L345 191M398 191L399 192L398 191M401 191L402 192L401 191M454 191L455 192L454 191M344 192L345 193L344 192M455 192L456 193L455 192M343 193L344 194L343 193M456 193L457 194L456 193M342 194L343 195L342 194M457 194L458 195L457 194M341 195L342 196L341 195M458 195L459 196L458 195M340 196L341 197L340 196M459 196L460 197L459 196M339 197L340 198L339 197M460 197L461 198L460 197M368 199L368 200L376 200L368 199M424 199L424 200L432 200L424 199M337 200L338 201L337 200z"/>
<path style="fill:#509aa7; stroke:none;" d="M364 200L365 201L364 200z"/>
<path style="fill:#436970; stroke:none;" d="M365 200L366 201L365 200z"/>
<path style="fill:#313131; stroke:none;" d="M331 233C315.917 241.724 310.577 261.133 316.93 277C319.086 282.386 325.788 287.718 325.985 293.576C326.179 299.386 319.231 304.798 317.094 310C310.719 325.519 315.384 345.898 331 354C333.327 346.861 347.131 319.292 355.817 336.044C359.573 343.287 349.107 351.622 348.185 359C344.761 386.419 371.199 388 391 388L391 332C377.542 329.185 365.842 320.803 360.338 308C357.617 301.67 356.093 287.563 366.999 288.337C375.351 288.93 374.608 298.507 377.453 303.996C380.17 309.237 385.527 312.39 391 314L391 232C391 221.958 394.166 208.334 383.999 202.533C365.155 191.782 344.822 210.401 348.329 230C349.506 236.577 357.913 242.272 356.638 248.999C355.358 255.757 347.958 257.681 343.015 253.718C336.531 248.52 333.49 240.639 331 233z"/>
<path style="fill:#436970; stroke:none;" d="M379 200L380 201L379 200M420 200L421 201L420 200z"/>
<path style="fill:#313131; stroke:none;" d="M409 273L409 388C428.801 388 455.239 386.419 451.815 359C450.893 351.622 440.427 343.287 444.183 336.044C452.869 319.292 466.673 346.861 469 354C484.616 345.898 489.281 325.519 482.906 310C480.736 304.717 473.817 299.347 474.015 293.424C474.208 287.676 480.945 282.308 483.07 277C489.423 261.133 484.083 241.724 469 233C466.51 240.639 463.469 248.52 456.985 253.718C452.042 257.681 444.642 255.757 443.362 248.999C442.339 243.597 447.816 239.382 450 235C453.01 228.96 452.9 220.093 450.084 214C444.071 200.988 418.498 191.931 410.028 208.04C405.659 216.349 409 233.682 409 243C409 246.139 407.979 251.621 410.028 254.273C412.371 257.307 418.684 258.066 422 259.904C431.471 265.155 448.343 282.849 440.258 294.945C437.24 299.459 431.49 300.782 427.572 296.605C424.32 293.139 424.854 288.07 422.875 284.004C420.101 278.305 414.591 275.34 409 273z"/>
<path style="fill:#436970; stroke:none;" d="M434 200L435 201L434 200z"/>
<path style="fill:#509aa7; stroke:none;" d="M435 200L436 201L435 200z"/>
<path style="fill:#436970; stroke:none;" d="M462 200L463 201L462 200M362 201L363 202L362 201M382 201L383 202L382 201M417 201L418 202L417 201M437 201L438 202L437 201M360 202L361 203L360 202M384 202L385 203L384 202M415 202L416 203L415 202M439 202L440 203L439 202M335 203L336 204L335 203z"/>
<path style="fill:#509aa7; stroke:none;" d="M358 203L359 204L358 203z"/>
<path style="fill:#436970; stroke:none;" d="M385 203L386 204L385 203M414 203L415 204L414 203z"/>
<path style="fill:#509aa7; stroke:none;" d="M441 203L442 204L441 203z"/>
<path style="fill:#436970; stroke:none;" d="M464 203L465 204L464 203M357 204L358 205L357 204M442 204L443 205L442 204M334 205L335 206L334 205M356 205L357 206L356 205M388 205L389 206L388 205M411 205L412 206L411 205M443 205L444 206L443 205M465 205L466 206L465 205M389 206L390 207L389 206M410 206L411 207L410 206M333 207L334 208L333 207M390 207L391 208L390 207M409 207L410 208L409 207M466 207L467 208L466 207M353 208L354 209L353 208z"/>
<path style="fill:#509aa7; stroke:none;" d="M391 208L392 209L391 208M408 208L409 209L408 208z"/>
<path style="fill:#436970; stroke:none;" d="M446 208L447 209L446 208M352 209L353 210L352 209M391 209L391 314L392 314L392 241L391 209M408 209L408 255L409 255C409 241.996 413.01 220.939 408 209M447 209L448 210L447 209M262 210L263 211L262 210z"/>
<path style="fill:#509aa7; stroke:none;" d="M263.667 210.333L264.333 210.667L263.667 210.333z"/>
<path style="fill:#60e6fc; stroke:none;" d="M265.004 210.718C258.628 211.474 256.208 218.788 259.742 223.816C263.478 229.131 277.218 238.763 283.985 237.562C289.735 236.543 292.476 229.922 289.257 225.093C285.607 219.618 271.856 209.906 265.004 210.718z"/>
<path style="fill:#509aa7; stroke:none;" d="M267.667 210.333L268.333 210.667L267.667 210.333z"/>
<path style="fill:#436970; stroke:none;" d="M332 210L333 211L332 210M467 210L468 211L467 210z"/>
<path style="fill:#509aa7; stroke:none;" d="M531.667 210.333L532.333 210.667L531.667 210.333z"/>
<path style="fill:#60e6fc; stroke:none;" d="M533 210.718C526.496 211.445 514.33 219.712 510.743 225.093C507.025 230.67 511.331 238.059 518.001 237.681C524.376 237.321 537.801 228.477 540.821 222.907C544.008 217.029 539.819 209.955 533 210.718z"/>
<path style="fill:#509aa7; stroke:none;" d="M535.667 210.333L536.333 210.667L535.667 210.333z"/>
<path style="fill:#436970; stroke:none;" d="M537 210L538 211L537 210z"/>
<path style="fill:#509aa7; stroke:none;" d="M261 211L262 212L261 211M270 211L271 212L270 211M529 211L530 212L529 211M538 211L539 212L538 211z"/>
<path style="fill:#436970; stroke:none;" d="M259 212L260 213L259 212M272 212L273 213L272 212M350 212L351 213L350 212M449 212L450 213L449 212M527 212L528 213L527 212M540 212L541 213L540 212z"/>
<path style="fill:#509aa7; stroke:none;" d="M273 213L274 214L273 213z"/>
<path style="fill:#436970; stroke:none;" d="M330 213L331 214L330 213M469 213L470 214L469 213z"/>
<path style="fill:#509aa7; stroke:none;" d="M526 213L527 214L526 213M258 214L259 215L258 214z"/>
<path style="fill:#436970; stroke:none;" d="M275 214L276 215L275 214M328 214L329 215L328 214M349 214L350 215L349 214M450 214L451 215L450 214M471 214L472 215L471 214M524 214L525 215L524 214z"/>
<path style="fill:#509aa7; stroke:none;" d="M541 214L542 215L541 214M276 215L277 216L276 215z"/>
<path style="fill:#436970; stroke:none;" d="M326 215L327 216L326 215M473 215L474 216L473 215z"/>
<path style="fill:#509aa7; stroke:none;" d="M523 215L524 216L523 215z"/>
<path style="fill:#436970; stroke:none;" d="M257 216L258 217L257 216M278 216L279 217L278 216M324 216L325 217L324 216M475 216L476 217L475 216M521 216L522 217L521 216M542 216L543 217L542 216z"/>
<path style="fill:#509aa7; stroke:none;" d="M257 217L257 220L258 220L257 217M279 217L280 218L279 217z"/>
<path style="fill:#436970; stroke:none;" d="M322 217L323 218L322 217M348 217L349 218L348 217M451 217L452 218L451 217M477 217L478 218L477 217z"/>
<path style="fill:#509aa7; stroke:none;" d="M520 217L521 218L520 217M542 217L542 220L543 220L542 217z"/>
<path style="fill:#436970; stroke:none;" d="M281 218L282 219L281 218M518 218L519 219L518 218z"/>
<path style="fill:#509aa7; stroke:none;" d="M282 219L283 220L282 219z"/>
<path style="fill:#436970; stroke:none;" d="M319 219L320 220L319 219M480 219L481 220L480 219z"/>
<path style="fill:#509aa7; stroke:none;" d="M517 219L518 220L517 219z"/>
<path style="fill:#436970; stroke:none;" d="M257 220L258 221L257 220M284 220L285 221L284 220z"/>
<path style="fill:#509aa7; stroke:none;" d="M318 220L319 221L318 220M347 220L348 221L347 220M452 220L453 221L452 220M481 220L482 221L481 220z"/>
<path style="fill:#436970; stroke:none;" d="M515 220L516 221L515 220M542 220L543 221L542 220z"/>
<path style="fill:#509aa7; stroke:none;" d="M285 221L286 222L285 221z"/>
<path style="fill:#436970; stroke:none;" d="M347 221L347 228L348 228L347 221M452 221L452 228L453 228L452 221z"/>
<path style="fill:#509aa7; stroke:none;" d="M514 221L515 222L514 221M258 222L259 223L258 222z"/>
<path style="fill:#436970; stroke:none;" d="M287 222L288 223L287 222M315 222L316 223L315 222M484 222L485 223L484 222M512 222L513 223L512 222z"/>
<path style="fill:#509aa7; stroke:none;" d="M541 222L542 223L541 222z"/>
<path style="fill:#436970; stroke:none;" d="M288 223L289 224L288 223M314 223L315 224L314 223M485 223L486 224L485 223M511 223L512 224L511 223M259 224L260 225L259 224M289 224L290 225L289 224M313 224L314 225L313 224M486 224L487 225L486 224M510 224L511 225L510 224M540 224L541 225L540 224M260 225L261 226L260 225M312 225L313 226L312 225M487 225L488 226L487 225M539 225L540 226L539 225z"/>
<path style="fill:#509aa7; stroke:none;" d="M262 226L263 227L262 226M290 226L291 227L290 226z"/>
<path style="fill:#436970; stroke:none;" d="M311 226L312 227L311 226M488 226L489 227L488 226z"/>
<path style="fill:#509aa7; stroke:none;" d="M509 226L510 227L509 226M537 226L538 227L537 226z"/>
<path style="fill:#436970; stroke:none;" d="M263 227L264 228L263 227M310 227L311 228L310 227M489 227L490 228L489 227M536 227L537 228L536 227z"/>
<path style="fill:#509aa7; stroke:none;" d="M265 228L266 229L265 228z"/>
<path style="fill:#436970; stroke:none;" d="M309 228L310 229L309 228M490 228L491 229L490 228z"/>
<path style="fill:#509aa7; stroke:none;" d="M534 228L535 229L534 228z"/>
<path style="fill:#436970; stroke:none;" d="M266 229L267 230L266 229M308 229L309 230L308 229M491 229L492 230L491 229M533 229L534 230L533 229z"/>
<path style="fill:#509aa7; stroke:none;" d="M268 230L269 231L268 230M531 230L532 231L531 230z"/>
<path style="fill:#436970; stroke:none;" d="M269 231L270 232L269 231M348 231L349 232L348 231M451 231L452 232L451 231M530 231L531 232L530 231z"/>
<path style="fill:#509aa7; stroke:none;" d="M271 232L272 233L271 232M290 232L291 233L290 232z"/>
<path style="fill:#436970; stroke:none;" d="M306 232L307 233L306 232M493 232L494 233L493 232z"/>
<path style="fill:#509aa7; stroke:none;" d="M509 232L510 233L509 232M528 232L529 233L528 232z"/>
<path style="fill:#436970; stroke:none;" d="M272 233L273 234L272 233M290 233L291 234L290 233M329 233L330 234L329 233z"/>
<path style="fill:#509aa7; stroke:none;" d="M468 233L469 234L468 233z"/>
<path style="fill:#436970; stroke:none;" d="M470 233L471 234L470 233M509 233L510 234L509 233M527 233L528 234L527 233z"/>
<path style="fill:#509aa7; stroke:none;" d="M274 234L275 235L274 234M289 234L290 235L289 234z"/>
<path style="fill:#436970; stroke:none;" d="M328 234L329 235L328 234M331 234L332 235L331 234M468 234L469 235L468 234M471 234L472 235L471 234z"/>
<path style="fill:#509aa7; stroke:none;" d="M510 234L511 235L510 234M525 234L526 235L525 234z"/>
<path style="fill:#436970; stroke:none;" d="M275 235L276 236L275 235M304 235L305 236L304 235M495 235L496 236L495 235M524 235L525 236L524 235z"/>
<path style="fill:#509aa7; stroke:none;" d="M277 236L278 237L277 236M287 236L288 237L287 236M512 236L513 237L512 236M522 236L523 237L522 236M279 237L280 238L279 237M285 237L286 238L285 237z"/>
<path style="fill:#436970; stroke:none;" d="M286 237L287 238L286 237M303 237L304 238L303 237M332 237L333 238L332 237M351 237L352 238L351 237M448 237L449 238L448 237M467 237L468 238L467 237M496 237L497 238L496 237M513 237L514 238L513 237z"/>
<path style="fill:#509aa7; stroke:none;" d="M514 237L515 238L514 237M520 237L521 238L520 237z"/>
<path style="fill:#436970; stroke:none;" d="M282 238L283 239L282 238M516.667 238.333L517.333 238.667L516.667 238.333M302 239L303 240L302 239M497 239L498 240L497 239M333 240L334 241L333 240M353 240L354 241L353 240M446 240L447 241L446 240M466 240L467 241L466 240M301 241L302 242L301 241M321 241L322 242L321 241M354 241L355 242L354 241M445 241L446 242L445 241M478 241L479 242L478 241M498 241L499 242L498 241M320 242L321 243L320 242M334 242L335 243L334 242M355 242L356 243L355 242M444 242L445 243L444 242M465 242L466 243L465 242M479 242L480 243L479 242M300 243L301 244L300 243M499 243L500 244L499 243M335 244L336 245L335 244M356 244L357 245L356 244M443 244L444 245L443 244M464 244L465 245L464 244M318 245L319 246L318 245M481 245L482 246L481 245M299 246L300 247L299 246M336 246L337 247L336 246M463 246L464 247L463 246M500 246L501 247L500 246M317 247L318 248L317 247z"/>
<path style="fill:#509aa7; stroke:none;" d="M337 247L338 248L337 247M462 247L463 248L462 247z"/>
<path style="fill:#436970; stroke:none;" d="M482 247L483 248L482 247M298 249L299 250L298 249M338 249L339 250L338 249M461 249L462 250L461 249M501 249L502 250L501 249z"/>
<path style="fill:#509aa7; stroke:none;" d="M298 250L299 251L298 250z"/>
<path style="fill:#436970; stroke:none;" d="M316 250L317 251L316 250M339 250L340 251L339 250M460 250L461 251L460 250M483 250L484 251L483 250z"/>
<path style="fill:#509aa7; stroke:none;" d="M501 250L502 251L501 250M340 251L341 252L340 251z"/>
<path style="fill:#436970; stroke:none;" d="M356 251L357 252L356 251M443 251L444 252L443 251z"/>
<path style="fill:#509aa7; stroke:none;" d="M459 251L460 252L459 251M315 252L316 253L315 252M484 252L485 253L484 252z"/>
<path style="fill:#436970; stroke:none;" d="M297 253L297 256L298 256L297 253M315 253L316 254L315 253M484 253L485 254L484 253M502 253L502 256L503 256L502 253z"/>
<path style="fill:#509aa7; stroke:none;" d="M343 254L344 255L343 254M456 254L457 255L456 254z"/>
<path style="fill:#436970; stroke:none;" d="M344 255L345 256L344 255M352 255L353 256L352 255M409.667 255.333L410.333 255.667L409.667 255.333M447 255L448 256L447 255M455 255L456 256L455 255M314 256L314 259L315 259L314 256M347 256L347 257L350 257L347 256M413.667 256.333L414.333 256.667L413.667 256.333M450 256L450 257L453 257L450 256M485 256L485 259L486 259L485 256M416 257L417 258L416 257M419 258L420 259L419 258M421 259L422 260L421 259M423 260L424 261L423 260z"/>
<path style="fill:#509aa7; stroke:none;" d="M424 261L425 262L424 261z"/>
<path style="fill:#436970; stroke:none;" d="M426 262L427 263L426 262M427 263L428 264L427 263M431 266L432 267L431 266M314 267L314 270L315 270L314 267M432 267L433 268L432 267M485 267L485 270L486 270L485 267M297 270L297 273L298 273L297 270M502 270L502 273L503 273L502 270M435 271L436 272L435 271M315.333 272.667L315.667 273.333L315.333 272.667M484.333 272.667L484.667 273.333L484.333 272.667M408 273L408 388L409 388L409 308L408 273M410 273L411 274L410 273M412 274L413 275L412 274M437 274L438 275L437 274z"/>
<path style="fill:#509aa7; stroke:none;" d="M298 275L299 276L298 275z"/>
<path style="fill:#436970; stroke:none;" d="M414 275L415 276L414 275z"/>
<path style="fill:#509aa7; stroke:none;" d="M501 275L502 276L501 275z"/>
<path style="fill:#436970; stroke:none;" d="M298 276L299 277L298 276z"/>
<path style="fill:#509aa7; stroke:none;" d="M316 276L317 277L316 276z"/>
<path style="fill:#436970; stroke:none;" d="M416 276L417 277L416 276M438 276L439 277L438 276z"/>
<path style="fill:#509aa7; stroke:none;" d="M483 276L484 277L483 276z"/>
<path style="fill:#436970; stroke:none;" d="M501 276L502 277L501 276M417 277L418 278L417 277M317 278L318 279L317 278M439 278L440 279L439 278M482 278L483 279L482 278M299 279L300 280L299 279M500 279L501 280L500 279M318 280L319 281L318 280M420 280L421 281L420 280M481 280L482 281L481 280M421 281L422 282L421 281M440 281L441 282L440 281M300 282L301 283L300 282M499 282L500 283L499 282M320 283L321 284L320 283M479 283L480 284L479 283z"/>
<path style="fill:#509aa7; stroke:none;" d="M301 284L302 285L301 284z"/>
<path style="fill:#436970; stroke:none;" d="M423 284L424 285L423 284M441 284L441 287L442 287L441 284M498 284L499 285L498 284z"/>
<path style="fill:#509aa7; stroke:none;" d="M263 285L263 286L285 286L263 285z"/>
<path style="fill:#436970; stroke:none;" d="M285 285L286 286L285 285M514 285L515 286L514 285z"/>
<path style="fill:#509aa7; stroke:none;" d="M515 285L515 286L537 286L515 285M261 286L262 287L261 286z"/>
<path style="fill:#60e6fc; stroke:none;" d="M262.109 286.742C256.419 289.189 257.136 298.022 262.109 300.821C266.942 303.542 280.889 303.242 285.895 300.991C291.475 298.481 292.501 290.186 286.891 287.028C282.243 284.411 266.984 284.646 262.109 286.742z"/>
<path style="fill:#436970; stroke:none;" d="M287 286L288 287L287 286M512 286L513 287L512 286z"/>
<path style="fill:#60e6fc; stroke:none;" d="M513.109 287.028C507.947 289.934 508.279 297.614 513.214 300.543C518.025 303.4 533.007 303.57 537.891 300.821C542.489 298.233 543.628 290.148 538.772 287.179C534.28 284.433 517.679 284.455 513.109 287.028z"/>
<path style="fill:#509aa7; stroke:none;" d="M538 286L539 287L538 286M288 287L289 288L288 287z"/>
<path style="fill:#436970; stroke:none;" d="M424 287L424 290L425 290L424 287z"/>
<path style="fill:#509aa7; stroke:none;" d="M511 287L512 288L511 287z"/>
<path style="fill:#436970; stroke:none;" d="M289 288L290 289L289 288z"/>
<path style="fill:#509aa7; stroke:none;" d="M303 288L304 289L303 288z"/>
<path style="fill:#436970; stroke:none;" d="M324 288L325 289L324 288M363 288L364 289L363 288z"/>
<path style="fill:#509aa7; stroke:none;" d="M369 288L370 289L369 288z"/>
<path style="fill:#436970; stroke:none;" d="M475 288L476 289L475 288z"/>
<path style="fill:#509aa7; stroke:none;" d="M496 288L497 289L496 288z"/>
<path style="fill:#436970; stroke:none;" d="M510 288L511 289L510 288z"/>
<path style="fill:#509aa7; stroke:none;" d="M258 289L259 290L258 289z"/>
<path style="fill:#436970; stroke:none;" d="M361 289L362 290L361 289M371 289L372 290L371 289z"/>
<path style="fill:#509aa7; stroke:none;" d="M541 289L542 290L541 289M290 290L291 291L290 290z"/>
<path style="fill:#436970; stroke:none;" d="M304 290L305 291L304 290z"/>
<path style="fill:#509aa7; stroke:none;" d="M325 290L326 291L325 290z"/>
<path style="fill:#436970; stroke:none;" d="M360 290L361 291L360 290z"/>
<path style="fill:#509aa7; stroke:none;" d="M474 290L475 291L474 290z"/>
<path style="fill:#436970; stroke:none;" d="M495 290L496 291L495 290z"/>
<path style="fill:#509aa7; stroke:none;" d="M509 290L510 291L509 290z"/>
<path style="fill:#436970; stroke:none;" d="M257 291L258 292L257 291M359 291L360 292L359 291z"/>
<path style="fill:#509aa7; stroke:none;" d="M373 291L374 292L373 291z"/>
<path style="fill:#436970; stroke:none;" d="M542 291L543 292L542 291z"/>
<path style="fill:#509aa7; stroke:none;" d="M257 292L257 295L258 295L257 292z"/>
<path style="fill:#436970; stroke:none;" d="M305 292L306 293L305 292M494 292L495 293L494 292z"/>
<path style="fill:#509aa7; stroke:none;" d="M542 292L542 295L543 295L542 292z"/>
<path style="fill:#436970; stroke:none;" d="M306 293L307 294L306 293M326 293L327 294L326 293M358 293L359 294L358 293M441 293L442 294L441 293M473 293L474 294L473 293M493 293L494 294L493 293M425 294L426 295L425 294M257 295L258 296L257 295z"/>
<path style="fill:#509aa7; stroke:none;" d="M305 295L306 296L305 295z"/>
<path style="fill:#436970; stroke:none;" d="M440 295L441 296L440 295z"/>
<path style="fill:#509aa7; stroke:none;" d="M494 295L495 296L494 295z"/>
<path style="fill:#436970; stroke:none;" d="M542 295L543 296L542 295z"/>
<path style="fill:#509aa7; stroke:none;" d="M290 296L291 297L290 296z"/>
<path style="fill:#436970; stroke:none;" d="M304 296L305 297L304 296M495 296L496 297L495 296z"/>
<path style="fill:#509aa7; stroke:none;" d="M509 296L510 297L509 296M258 297L259 298L258 297z"/>
<path style="fill:#436970; stroke:none;" d="M290 297L291 298L290 297M325 297L326 298L325 297M375 297L375 300L376 300L375 297M427 297L428 298L427 297M474 297L475 298L474 297M509 297L510 298L509 297z"/>
<path style="fill:#509aa7; stroke:none;" d="M541 297L542 298L541 297M289 298L290 299L289 298z"/>
<path style="fill:#436970; stroke:none;" d="M303 298L304 299L303 298M429 298L430 299L429 298M437 298L438 299L437 298M496 298L497 299L496 298z"/>
<path style="fill:#509aa7; stroke:none;" d="M510 298L511 299L510 298z"/>
<path style="fill:#436970; stroke:none;" d="M259 299L260 300L259 299M431 299L431 300L435 300L431 299M540 299L541 300L540 299M260 300L261 301L260 300z"/>
<path style="fill:#509aa7; stroke:none;" d="M287 300L288 301L287 300z"/>
<path style="fill:#436970; stroke:none;" d="M302 300L303 301L302 300z"/>
<path style="fill:#509aa7; stroke:none;" d="M358 300L359 301L358 300z"/>
<path style="fill:#436970; stroke:none;" d="M497 300L498 301L497 300z"/>
<path style="fill:#509aa7; stroke:none;" d="M512 300L513 301L512 300z"/>
<path style="fill:#436970; stroke:none;" d="M539 300L540 301L539 300z"/>
<path style="fill:#509aa7; stroke:none;" d="M262 301L263 302L262 301M285 301L286 302L285 301z"/>
<path style="fill:#436970; stroke:none;" d="M286 301L287 302L286 301M322 301L323 302L322 301M358.333 301.667L358.667 302.333L358.333 301.667M477 301L478 302L477 301M513 301L514 302L513 301z"/>
<path style="fill:#509aa7; stroke:none;" d="M514 301L515 302L514 301M537 301L538 302L537 301z"/>
<path style="fill:#436970; stroke:none;" d="M265 302L265 303L283 303L265 302M301 302L302 303L301 302M321 302L322 303L321 302M376 302L377 303L376 302M478 302L479 303L478 302M498 302L499 303L498 302M517 302L517 303L535 303L517 302z"/>
<path style="fill:#509aa7; stroke:none;" d="M320 303L321 304L320 303M479 303L480 304L479 303z"/>
<path style="fill:#436970; stroke:none;" d="M300 304L301 305L300 304M377 304L378 305L377 304M499 304L500 305L499 304M319 305L320 306L319 305z"/>
<path style="fill:#509aa7; stroke:none;" d="M359 305L360 306L359 305z"/>
<path style="fill:#436970; stroke:none;" d="M480 305L481 306L480 305M359 306L360 307L359 306M299 307L300 308L299 307M500 307L501 308L500 307M360 308L361 309L360 308M298.333 310.667L298.667 311.333L298.333 310.667M383 310L384 311L383 310M501.333 310.667L501.667 311.333L501.333 310.667M316 311L317 312L316 311M384 311L385 312L384 311M483 311L484 312L483 311z"/>
<path style="fill:#509aa7; stroke:none;" d="M362 312L363 313L362 312z"/>
<path style="fill:#436970; stroke:none;" d="M386 312L387 313L386 312M388 313L389 314L388 313M297 314L297 317L298 317L297 314M315 314L316 315L315 314M363 314L364 315L363 314M484 314L485 315L484 314M502.333 315.667L502.667 316.333L502.333 315.667z"/>
<path style="fill:#509aa7; stroke:none;" d="M314 317L315 318L314 317z"/>
<path style="fill:#436970; stroke:none;" d="M365 317L366 318L365 317z"/>
<path style="fill:#509aa7; stroke:none;" d="M485 317L486 318L485 317z"/>
<path style="fill:#436970; stroke:none;" d="M314.333 318.667L314.667 319.333L314.333 318.667M366 318L367 319L366 318M485.333 318.667L485.667 319.333L485.333 318.667M367 319L368 320L367 319M368 320L369 321L368 320M369 321L370 322L369 321M370 322L371 323L370 322z"/>
<path style="fill:#509aa7; stroke:none;" d="M373 324L374 325L373 324z"/>
<path style="fill:#436970; stroke:none;" d="M374 325L375 326L374 325M376 326L377 327L376 326M314 328L314 331L315 331L314 328M485 328L485 331L486 331L485 328M382 329L383 330L382 329M384 330L385 331L384 330z"/>
<path style="fill:#509aa7; stroke:none;" d="M385 330L386 331L385 330z"/>
<path style="fill:#436970; stroke:none;" d="M297 331L297 334L298 334L297 331M345 331L346 332L345 331M351 331L352 332L351 331M388 331L389 332L388 331M448 331L449 332L448 331M454 331L455 332L454 331M502 331L502 334L503 334L502 331M343 332L344 333L343 332M353 332L354 333L353 332M391 332L391 388L392 388L392 350L391 332M446 332L447 333L446 332M456 332L457 333L456 332M342 333L343 334L342 333z"/>
<path style="fill:#509aa7; stroke:none;" d="M354 333L355 334L354 333M445 333L446 334L445 333z"/>
<path style="fill:#436970; stroke:none;" d="M457 333L458 334L457 333M315 334L316 335L315 334M341 334L342 335L341 334M355 334L356 335L355 334M444 334L445 335L444 334M458 334L459 335L458 334M484 334L485 335L484 334M340 335L341 336L340 335M459 335L460 336L459 335M339 336L340 337L339 336M356 336L357 337L356 336M443 336L444 337L443 336M460 336L461 337L460 336M298 337L299 338L298 337M316 337L317 338L316 337M483 337L484 338L483 337M501 337L502 338L501 337M317 339L318 340L317 339M337 339L338 340L337 339M462 339L463 340L462 339M482 339L483 340L482 339z"/>
<path style="fill:#509aa7; stroke:none;" d="M299 340L300 341L299 340M500 340L501 341L500 340z"/>
<path style="fill:#436970; stroke:none;" d="M299 341L300 342L299 341M318 341L319 342L318 341M481 341L482 342L481 341M500 341L501 342L500 341M335 342L336 343L335 342M464 342L465 343L464 342M300 343L301 344L300 343M319 343L320 344L319 343M480 343L481 344L480 343M499 343L500 344L499 343M320 344L321 345L320 344M334 344L335 345L334 344z"/>
<path style="fill:#509aa7; stroke:none;" d="M355 344L356 345L355 344M444 344L445 345L444 344z"/>
<path style="fill:#436970; stroke:none;" d="M465 344L466 345L465 344M479 344L480 345L479 344M301 346L302 347L301 346M333 346L334 347L333 346M466 346L467 347L466 346M498 346L499 347L498 346M322 347L323 348L322 347M477 347L478 348L477 347M302 348L303 349L302 348M323 348L324 349L323 348M352 348L353 349L352 348M447 348L448 349L447 348M476 348L477 349L476 348M497 348L498 349L497 348M279 349L280 350L279 349z"/>
<path style="fill:#509aa7; stroke:none;" d="M280 349L280 350L285 350L280 349z"/>
<path style="fill:#436970; stroke:none;" d="M285 349L286 350L285 349M324 349L325 350L324 349M332 349L333 350L332 349M351 349L352 350L351 349M448 349L449 350L448 349M467 349L468 350L467 349M475 349L476 350L475 349M514 349L515 350L514 349z"/>
<path style="fill:#509aa7; stroke:none;" d="M515 349L515 350L520 350L515 349z"/>
<path style="fill:#436970; stroke:none;" d="M520 349L521 350L520 349M277 350L278 351L277 350z"/>
<path style="fill:#509aa7; stroke:none;" d="M278 350L279 351L278 350z"/>
<path style="fill:#60e6fc; stroke:none;" d="M279 350.649C273.116 352.41 262.46 358.789 259.318 364.184C255.686 370.423 260.827 378.116 268 376.566C274.129 375.241 286.438 367.33 289.542 361.816C293.771 354.305 286.088 348.528 279 350.649z"/>
<path style="fill:#436970; stroke:none;" d="M287 350L288 351L287 350M325 350L326 351L325 350M474 350L475 351L474 350M512 350L513 351L512 350z"/>
<path style="fill:#60e6fc; stroke:none;" d="M513.109 351.028C499.035 358.924 528.836 380.864 537.891 375.82C552.646 367.602 523.006 345.475 513.109 351.028z"/>
<path style="fill:#509aa7; stroke:none;" d="M521 350L522 351L521 350z"/>
<path style="fill:#436970; stroke:none;" d="M522 350L523 351L522 350z"/>
<path style="fill:#509aa7; stroke:none;" d="M276 351L277 352L276 351M288 351L289 352L288 351M304 351L305 352L304 351z"/>
<path style="fill:#436970; stroke:none;" d="M326 351L327 352L326 351M350 351L351 352L350 351M449 351L450 352L449 351M473 351L474 352L473 351z"/>
<path style="fill:#509aa7; stroke:none;" d="M495 351L496 352L495 351M511 351L512 352L511 351M523 351L524 352L523 351z"/>
<path style="fill:#436970; stroke:none;" d="M274 352L275 353L274 352z"/>
<path style="fill:#509aa7; stroke:none;" d="M289 352L290 353L289 352z"/>
<path style="fill:#436970; stroke:none;" d="M331.333 352.667L331.667 353.333L331.333 352.667M468.333 352.667L468.667 353.333L468.333 352.667z"/>
<path style="fill:#509aa7; stroke:none;" d="M510 352L511 353L510 352z"/>
<path style="fill:#436970; stroke:none;" d="M525 352L526 353L525 352z"/>
<path style="fill:#509aa7; stroke:none;" d="M273 353L274 354L273 353z"/>
<path style="fill:#436970; stroke:none;" d="M305 353L306 354L305 353M329 353L330 354L329 353M349 353L350 354L349 353M450 353L451 354L450 353M470 353L471 354L470 353M494 353L495 354L494 353z"/>
<path style="fill:#509aa7; stroke:none;" d="M526 353L527 354L526 353z"/>
<path style="fill:#436970; stroke:none;" d="M271 354L272 355L271 354z"/>
<path style="fill:#509aa7; stroke:none;" d="M290 354L291 355L290 354z"/>
<path style="fill:#436970; stroke:none;" d="M330 354L331 355L330 354M469 354L470 355L469 354z"/>
<path style="fill:#509aa7; stroke:none;" d="M509 354L510 355L509 354z"/>
<path style="fill:#436970; stroke:none;" d="M528 354L529 355L528 354z"/>
<path style="fill:#509aa7; stroke:none;" d="M270 355L271 356L270 355M348 355L349 356L348 355M451 355L452 356L451 355M529 355L530 356L529 355z"/>
<path style="fill:#436970; stroke:none;" d="M268 356L269 357L268 356M307 356L308 357L307 356M348 356L349 357L348 356M451 356L452 357L451 356M492 356L493 357L492 356M531 356L532 357L531 356z"/>
<path style="fill:#509aa7; stroke:none;" d="M267 357L268 358L267 357z"/>
<path style="fill:#436970; stroke:none;" d="M308 357L309 358L308 357M491 357L492 358L491 357z"/>
<path style="fill:#509aa7; stroke:none;" d="M532 357L533 358L532 357z"/>
<path style="fill:#436970; stroke:none;" d="M265 358L266 359L265 358z"/>
<path style="fill:#509aa7; stroke:none;" d="M309 358L310 359L309 358M490 358L491 359L490 358z"/>
<path style="fill:#436970; stroke:none;" d="M534 358L535 359L534 358z"/>
<path style="fill:#509aa7; stroke:none;" d="M264 359L265 360L264 359M347 359L348 360L347 359M452 359L453 360L452 359M535 359L536 360L535 359z"/>
<path style="fill:#436970; stroke:none;" d="M262 360L263 361L262 360z"/>
<path style="fill:#509aa7; stroke:none;" d="M290 360L291 361L290 360z"/>
<path style="fill:#436970; stroke:none;" d="M347 360L347 367L348 367L347 360M452 360L452 367L453 367L452 360z"/>
<path style="fill:#509aa7; stroke:none;" d="M509 360L510 361L509 360z"/>
<path style="fill:#436970; stroke:none;" d="M537 360L538 361L537 360z"/>
<path style="fill:#509aa7; stroke:none;" d="M261 361L262 362L261 361z"/>
<path style="fill:#436970; stroke:none;" d="M290 361L291 362L290 361M509 361L510 362L509 361z"/>
<path style="fill:#509aa7; stroke:none;" d="M538 361L539 362L538 361M289 362L290 363L289 362M510 362L511 363L510 362M259 363L260 364L259 363M540 363L541 364L540 363M258 364L259 365L258 364M287 364L288 365L287 364M512 364L513 365L512 364M541 364L542 365L541 364z"/>
<path style="fill:#436970; stroke:none;" d="M286 365L287 366L286 365M316 365L317 366L316 365M483 365L484 366L483 365M513 365L514 366L513 365M257 366L258 367L257 366z"/>
<path style="fill:#509aa7; stroke:none;" d="M284 366L285 367L284 366z"/>
<path style="fill:#436970; stroke:none;" d="M317 366L318 367L317 366M482 366L483 367L482 366z"/>
<path style="fill:#509aa7; stroke:none;" d="M515 366L516 367L515 366z"/>
<path style="fill:#436970; stroke:none;" d="M542 366L543 367L542 366z"/>
<path style="fill:#509aa7; stroke:none;" d="M257 367L257 370L258 370L257 367z"/>
<path style="fill:#436970; stroke:none;" d="M283 367L284 368L283 367M516 367L517 368L516 367z"/>
<path style="fill:#509aa7; stroke:none;" d="M542 367L542 370L543 370L542 367M281 368L282 369L281 368z"/>
<path style="fill:#436970; stroke:none;" d="M320 368L321 369L320 368M479 368L480 369L479 368z"/>
<path style="fill:#509aa7; stroke:none;" d="M518 368L519 369L518 368z"/>
<path style="fill:#436970; stroke:none;" d="M280 369L281 370L280 369M348 369L349 370L348 369M451 369L452 370L451 369M519 369L520 370L519 369M257 370L258 371L257 370z"/>
<path style="fill:#509aa7; stroke:none;" d="M278 370L279 371L278 370z"/>
<path style="fill:#436970; stroke:none;" d="M323 370L324 371L323 370z"/>
<path style="fill:#509aa7; stroke:none;" d="M348 370L349 371L348 370M451 370L452 371L451 370z"/>
<path style="fill:#436970; stroke:none;" d="M476 370L477 371L476 370z"/>
<path style="fill:#509aa7; stroke:none;" d="M521 370L522 371L521 370z"/>
<path style="fill:#436970; stroke:none;" d="M542 370L543 371L542 370M277 371L278 372L277 371M325 371L326 372L325 371M474 371L475 372L474 371M522 371L523 372L522 371z"/>
<path style="fill:#509aa7; stroke:none;" d="M258 372L259 373L258 372M275 372L276 373L275 372z"/>
<path style="fill:#436970; stroke:none;" d="M327 372L328 373L327 372M349 372L350 373L349 372M450 372L451 373L450 372M472 372L473 373L472 372z"/>
<path style="fill:#509aa7; stroke:none;" d="M524 372L525 373L524 372M541 372L542 373L541 372z"/>
<path style="fill:#436970; stroke:none;" d="M274 373L275 374L274 373z"/>
<path style="fill:#509aa7; stroke:none;" d="M330 373L331 374L330 373M469 373L470 374L469 373z"/>
<path style="fill:#436970; stroke:none;" d="M525 373L526 374L525 373M259 374L260 375L259 374z"/>
<path style="fill:#509aa7; stroke:none;" d="M272 374L273 375L272 374z"/>
<path style="fill:#436970; stroke:none;" d="M350 374L351 375L350 374M449 374L450 375L449 374z"/>
<path style="fill:#509aa7; stroke:none;" d="M527 374L528 375L527 374z"/>
<path style="fill:#436970; stroke:none;" d="M540 374L541 375L540 374M260 375L261 376L260 375M271 375L272 376L271 375M528 375L529 376L528 375M539 375L540 376L539 375z"/>
<path style="fill:#509aa7; stroke:none;" d="M262 376L263 377L262 376M269 376L270 377L269 376M332 376L333 377L332 376z"/>
<path style="fill:#436970; stroke:none;" d="M351 376L352 377L351 376M448 376L449 377L448 376M467 376L468 377L467 376z"/>
<path style="fill:#509aa7; stroke:none;" d="M530 376L531 377L530 376M537 376L538 377L537 376z"/>
<path style="fill:#436970; stroke:none;" d="M265.667 377.333L266.333 377.667L265.667 377.333M352 377L353 378L352 377M447 377L448 378L447 377M533.667 377.333L534.333 377.667L533.667 377.333M333 379L334 380L333 379M466 379L467 380L466 379M334 381L335 382L334 381M465 381L466 382L465 381M335 383L336 384L335 383M358 383L359 384L358 383M441 383L442 384L441 383M464 383L465 384L464 383z"/>
<path style="fill:#509aa7; stroke:none;" d="M359 384L360 385L359 384M440 384L441 385L440 384z"/>
<path style="fill:#436970; stroke:none;" d="M336 385L337 386L336 385M361 385L362 386L361 385M438 385L439 386L438 385M463 385L464 386L463 385z"/>
<path style="fill:#509aa7; stroke:none;" d="M337 386L338 387L337 386z"/>
<path style="fill:#436970; stroke:none;" d="M364 386L365 387L364 386M435 386L436 387L435 386z"/>
<path style="fill:#509aa7; stroke:none;" d="M462 386L463 387L462 386z"/>
<path style="fill:#436970; stroke:none;" d="M367.667 387.333L368.333 387.667L367.667 387.333M431.667 387.333L432.333 387.667L431.667 387.333M338 388L339 389L338 388M461 388L462 389L461 388M339 389L340 390L339 389M460 389L461 390L460 389z"/>
<path style="fill:#509aa7; stroke:none;" d="M340 390L341 391L340 390M459 390L460 391L459 390z"/>
<path style="fill:#436970; stroke:none;" d="M345 395L346 396L345 395M454 395L455 396L454 395M346 396L347 397L346 396M453 396L454 397L453 396M349 398L350 399L349 398M450 398L451 399L450 398M357 402L358 403L357 402M442 402L443 403L442 402z"/>
<path style="fill:#313131; stroke:none;" d="M375 405L376.742 419.972L387 421L413 421L423.258 419.972L425 405L375 405z"/>
<path style="fill:#436970; stroke:none;" d="M375 419L376 420L375 419M424 419L425 420L424 419M377 421L377 422L423 422C411.061 416.99 390.003 421 377 421M358.333 422.667L358.667 423.333L358.333 422.667M441.333 422.667L441.667 423.333L441.333 422.667M359 426L360 427L359 426M440 426L441 427L440 426M360 428L361 429L360 428M439 428L440 429L439 428M362 431L363 432L362 431M437 431L438 432L437 431M363 432L364 433L363 432M436 432L437 433L436 432M364 433L365 434L364 433M435 433L436 434L435 433M365 434L366 435L365 434M434 434L435 435L434 434z"/>
<path style="fill:#509aa7; stroke:none;" d="M367 435L368 436L367 435M432 435L433 436L432 435z"/>
<path style="fill:#436970; stroke:none;" d="M387 438L387 439L413 439L387 438z"/>
<path style="fill:#509aa7; stroke:none;" d="M369 439L370 440L369 439M386 439L387 440L386 439z"/>
<path style="fill:#313131; stroke:none;" d="M387 439C389.871 453.219 410.129 453.22 413 439L387 439z"/>
<path style="fill:#509aa7; stroke:none;" d="M413 439L414 440L413 439M430 439L431 440L430 439z"/>
<path style="fill:#436970; stroke:none;" d="M369 440L369 443L370 443L369 440M430 440L430 443L431 443L430 440M370 445L371 446L370 445z"/>
<path style="fill:#509aa7; stroke:none;" d="M389 445L390 446L389 445M410 445L411 446L410 445z"/>
<path style="fill:#436970; stroke:none;" d="M429 445L430 446L429 445M390 446L391 447L390 446M409 446L410 447L409 446M371 448L372 449L371 448M393 448L394 449L393 448M406 448L407 449L406 448M428 448L429 449L428 448M395 449L396 450L395 449M404 449L405 450L404 449M372 450L373 451L372 450z"/>
<path style="fill:#509aa7; stroke:none;" d="M399.667 450.333L400.333 450.667L399.667 450.333z"/>
<path style="fill:#436970; stroke:none;" d="M427 450L428 451L427 450M373 452L374 453L373 452M426 452L427 453L426 452M375 455L376 456L375 455M424 455L425 456L424 455M376 456L377 457L376 456M423 456L424 457L423 456M380 460L381 461L380 460M419 460L420 461L419 460M381 461L382 462L381 461M418 461L419 462L418 461z"/>
<path style="fill:#509aa7; stroke:none;" d="M383 462L384 463L383 462M416 462L417 463L416 462z"/>
<path style="fill:#436970; stroke:none;" d="M384 463L385 464L384 463M415 463L416 464L415 463M386 464L387 465L386 464M413 464L414 465L413 464z"/>
<path style="fill:#509aa7; stroke:none;" d="M389 465L390 466L389 465M410 465L411 466L410 465z"/>
<path style="fill:#436970; stroke:none;" d="M391.667 466.333L392.333 466.667L391.667 466.333M407.667 466.333L408.333 466.667L407.667 466.333M396 467L396 468L404 468L396 467M213 490L213 491L218 491L213 490M336 490L336 491L341 491L336 490M427 490L427 491L432 491L427 490M454 490L454 491L459 491L454 490M527 490L527 491L532 491L527 490M580 490L580 491L584 491L580 490M211 491L210 493L211 491z"/>
<path style="fill:#facb20; stroke:none;" d="M209 508C198.687 508.566 198.585 518.661 209 519C209 527.61 206.491 541.331 212.005 548.66C215.845 553.763 229.359 555.554 231.562 547.893C233.595 540.82 225.766 541.668 223.179 536.941C220.561 532.159 222 524.297 222 519C234.243 518.957 234.217 508.111 222 508C222 503.861 223.28 497.006 220.821 493.434C212.373 481.16 209 503.58 209 508z"/>
<path style="fill:#509aa7; stroke:none;" d="M219 491L220 492L219 491z"/>
<path style="fill:#436970; stroke:none;" d="M334 491L333 493L334 491z"/>
<path style="fill:#facb20; stroke:none;" d="M347 514C345.537 509.052 346.456 504.056 345.699 499C344.74 492.594 336.424 486.623 332.894 495.059C327.938 506.9 331.934 528.192 332.001 541C332.024 545.478 332.216 552.12 338.042 552.713C349.232 553.851 345.388 534.3 346.185 528C346.54 525.196 347.994 519.349 351.91 519.921C359.897 521.088 354.443 543.544 356.742 548.891C358.681 553.398 365.209 554.042 367.821 549.772C371.557 543.663 370.666 521 366.991 515.015C362.443 507.611 351.398 505.593 347 514z"/>
<path style="fill:#509aa7; stroke:none;" d="M425 491L426 492L425 491z"/>
<path style="fill:#facb20; stroke:none;" d="M426.228 491.743C421.711 493.817 423 500.996 423 505C423 518.479 421.012 533.685 423.148 546.985C423.796 551.018 427.7 553.944 431.786 552.242C436.71 550.191 435.998 543.296 436 539C436.005 525.695 437.648 511.176 435.811 498.001C435.143 493.211 431.282 489.424 426.228 491.743z"/>
<path style="fill:#436970; stroke:none;" d="M433 491L434 492L433 491z"/>
<path style="fill:#facb20; stroke:none;" d="M452.318 492.028C446.01 496.224 452.885 506.973 459.772 502.82C467.375 498.234 459.636 487.16 452.318 492.028z"/>
<path style="fill:#436970; stroke:none;" d="M460 491L461 492L460 491z"/>
<path style="fill:#509aa7; stroke:none;" d="M525 491L526 492L525 491z"/>
<path style="fill:#facb20; stroke:none;" d="M537 515C535.346 509.405 536.536 503.728 535.891 498.001C535.251 492.314 526.909 487.451 523.742 494.228C521.966 498.031 523 503.903 523 508L523 540C523.002 544.508 522.315 551.226 528.043 552.522C539.64 555.147 535.296 534.046 536.468 528C537.011 525.202 538.833 519.109 542.867 520.346C549.755 522.457 544.551 542.493 546.742 547.981C548.67 552.809 554.887 554.566 558.062 549.852C562.852 542.741 561.523 521.04 556.995 514.044C551.918 506.201 540.946 506.789 537 515z"/>
<path style="fill:#436970; stroke:none;" d="M533 491L534 492L533 491z"/>
<path style="fill:#facb20; stroke:none;" d="M575 508C565.142 508.542 565.041 518.676 575 519C575 527.356 572.849 540.641 577.742 547.945C581.616 553.728 596.853 556.121 598.458 546.961C599.507 540.968 592.367 541.61 590.028 537.772C587.26 533.231 589 524.177 589 519C600.954 518.892 600.785 508.285 589 508C589 503.577 589.694 498.159 587.427 494.148C585.124 490.071 578.876 490.071 576.573 494.148C574.306 498.159 575 503.577 575 508z"/>
<path style="fill:#436970; stroke:none;" d="M434 492L435 493L434 492M450 492L451 493L450 492M534 492L535 493L534 492M221 493L222 494L221 493M344 493L345 494L344 493M423 493L424 494L423 493M462 493L463 494L462 493M523 493L524 494L523 493z"/>
<path style="fill:#509aa7; stroke:none;" d="M576 493L577 494L576 493M587 493L588 494L587 493z"/>
<path style="fill:#436970; stroke:none;" d="M209 494L210 495L209 494M332 494L333 495L332 494M435 494L436 495L435 494M535 494L536 495L535 494z"/>
<path style="fill:#509aa7; stroke:none;" d="M209 495L210 496L209 495M332 495L333 496L332 495z"/>
<path style="fill:#436970; stroke:none;" d="M345.333 495.667L345.667 496.333L345.333 495.667z"/>
<path style="fill:#509aa7; stroke:none;" d="M435 495L436 496L435 495z"/>
<path style="fill:#436970; stroke:none;" d="M449 495L449 500L450 500L449 495M575.333 495.667L575.667 496.333L575.333 495.667M588.333 495.667L588.667 496.333L588.333 495.667M222 496L222 508L223 508L222 496M422 496L422 548L423 548L423 513L422 496M522 496L522 548L523 548L523 513L522 496z"/>
<path style="fill:#509aa7; stroke:none;" d="M345 497L346 498L345 497z"/>
<path style="fill:#436970; stroke:none;" d="M536 498L536 515L537 515L536 498M462 500L463 501L462 500M450 501L451 502L450 501z"/>
<path style="fill:#509aa7; stroke:none;" d="M451 502L452 503L451 502z"/>
<path style="fill:#436970; stroke:none;" d="M461 502L462 503L461 502M452 503L453 504L452 503M459 503L460 504L459 503M203 508L204 509L203 508M229 508L230 509L229 508M252 508L252 509L255 509L252 508z"/>
<path style="fill:#facb20; stroke:none;" d="M254 533C259.652 533 270.762 535.127 275.566 531.821C280.931 528.128 277.48 516.192 273.606 512.638C267.728 507.246 256.002 506.949 249.004 509.995C232.067 517.366 237.939 550.892 256 552.826C261.556 553.422 279.868 551.789 276.353 542.147C272.347 531.162 257.893 551.582 254.318 538.02C253.894 536.413 254.019 534.641 254 533z"/>
<path style="fill:#436970; stroke:none;" d="M262 508L262 509L265 509L262 508M298 508L298 509L301 509L298 508z"/>
<path style="fill:#facb20; stroke:none;" d="M301 508.44C285.815 510.764 279.85 533.874 288.653 545.957C294.198 553.568 305.731 554.346 314 551.387C318.962 549.61 327.108 541.232 321.397 535.858C311.896 526.92 307.745 550.266 300.742 540.848C297.704 536.762 296.736 518.205 304.961 519.176C310.232 519.798 313.295 534.502 321.397 526.397C332.323 515.465 308.439 507.301 301 508.44z"/>
<path style="fill:#436970; stroke:none;" d="M308 508L308 509L311 509L308 508M352 508L353 509L352 508z"/>
<path style="fill:#509aa7; stroke:none;" d="M353 508L354 509L353 508z"/>
<path style="fill:#436970; stroke:none;" d="M358.667 508.333L359.333 508.667L358.667 508.333M453.667 508.333L454.333 508.667L453.667 508.333z"/>
<path style="fill:#facb20; stroke:none;" d="M455.043 508.762C450.404 509.5 450.057 514.212 450.004 518C449.905 525.096 445.839 553.5 456.958 552.663C461.001 552.358 462.542 548.52 462.895 544.999C463.801 535.976 464.425 523.922 462.772 515.005C462.082 511.284 459.108 508.115 455.043 508.762z"/>
<path style="fill:#509aa7; stroke:none;" d="M457 508L458 509L457 508z"/>
<path style="fill:#436970; stroke:none;" d="M458 508L459 509L458 508M484.667 508.333L485.333 508.667L484.667 508.333z"/>
<path style="fill:#facb20; stroke:none;" d="M497 547L498 547C498 551.112 499.331 561.045 492.971 561.249C488.312 561.399 480.27 550.794 476.133 559.228C473.738 564.111 480.175 568.354 484.001 569.457C492.318 571.855 504.697 571.553 509.427 562.96C514.51 553.727 511 535.383 511 525C511 521.108 511.917 515.77 510.397 512.109C507.398 504.889 499.203 509.35 498 515C492.784 507.236 481.665 505.59 476.688 515.04C473.275 521.522 473.089 539.458 476.457 545.985C480.634 554.08 492.771 555.46 497 547z"/>
<path style="fill:#436970; stroke:none;" d="M490.667 508.333L491.333 508.667L490.667 508.333M502 508L503 509L502 508M507 508L508 509L507 508M543 508L544 509L543 508M548.667 508.333L549.333 508.667L548.667 508.333M569 508L570 509L569 508M595 508L596 509L595 508M201 509L202 510L201 509M231 509L232 510L231 509M249 509L250 510L249 509M268 509L269 510L268 509M295 509L296 510L295 509M313 509L314 510L313 509M350 509L351 510L350 509M361 509L362 510L361 509M460 509L461 510L460 509M493 509L494 510L493 509z"/>
<path style="fill:#509aa7; stroke:none;" d="M500 509L501 510L500 509z"/>
<path style="fill:#436970; stroke:none;" d="M509 509L510 510L509 509M552 509L553 510L552 509M567 509L568 510L567 509M597 509L598 510L597 509M247 510L248 511L247 510M270 510L271 511L270 510M363 510L364 511L363 510M461 510L462 511L461 510M480 510L481 511L480 510M539 510L540 511L539 510M598 510L599 511L598 510M200 511L201 512L200 511M232 511L232 516L233 516L232 511M272 511L273 512L272 511M291 511L292 512L291 511z"/>
<path style="fill:#509aa7; stroke:none;" d="M317 511L318 512L317 511M364 511L365 512L364 511z"/>
<path style="fill:#436970; stroke:none;" d="M450 511L451 512L450 511M498 511L499 512L498 511M538 511L539 512L538 511M555 511L556 512L555 511M566 511L566 516L567 516L566 511M290 512L291 513L290 512z"/>
<path style="fill:#509aa7; stroke:none;" d="M365 512L366 513L365 512z"/>
<path style="fill:#436970; stroke:none;" d="M462 512L463 513L462 512M496 512L497 513L496 512M289 513L290 514L289 513M346 513L347 514L346 513M366 513L367 514L366 513z"/>
<path style="fill:#509aa7; stroke:none;" d="M477 513L478 514L477 513z"/>
<path style="fill:#436970; stroke:none;" d="M511 513L511 558L512 558C512 545.258 515.91 524.701 511 513M275 514L276 515L275 514M288 514L289 515L288 514M449 514L449 548L450 548L449 514M476 514L477 515L476 514M497 514L498 515L497 514M557 514L558 515L557 514z"/>
<path style="fill:#509aa7; stroke:none;" d="M200 515L201 516L200 515z"/>
<path style="fill:#436970; stroke:none;" d="M242 515L243 516L242 515M321 515L322 516L321 515M367 515L368 516L367 515M200 516L201 517L200 516M276 516L277 517L276 516M287 516L288 517L287 516M475 516L476 517L475 516M558 516L559 517L558 516M598 516L599 517L598 516z"/>
<path style="fill:#509aa7; stroke:none;" d="M201 517L202 518L201 517z"/>
<path style="fill:#436970; stroke:none;" d="M231 517L232 518L231 517M241 517L242 518L241 517z"/>
<path style="fill:#509aa7; stroke:none;" d="M322 517L323 518L322 517z"/>
<path style="fill:#436970; stroke:none;" d="M368 517L369 518L368 517z"/>
<path style="fill:#509aa7; stroke:none;" d="M475 517L476 518L475 517z"/>
<path style="fill:#436970; stroke:none;" d="M567 517L568 518L567 517M202 518L203 519L202 518M230 518L231 519L230 518z"/>
<path style="fill:#313131; stroke:none;" d="M254 526L265 526C263.944 516.554 254.54 516.175 254 526z"/>
<path style="fill:#436970; stroke:none;" d="M262 518L263 519L262 518M277.333 518.667L277.667 519.333L277.333 518.667M286.333 518.667L286.667 519.333L286.333 518.667M303.667 518.333L304.333 518.667L303.667 518.333z"/>
<path style="fill:#509aa7; stroke:none;" d="M305 518L306 519L305 518z"/>
<path style="fill:#436970; stroke:none;" d="M596 518L597 519L596 518M222 519L222 537L223 537L222 519M263 519L264 520L263 519M349 519L350 520L349 519M353 519L354 520L353 519z"/>
<path style="fill:#313131; stroke:none;" d="M490.6 520.072C487.148 522.517 487.375 544.242 493.872 540.914C501.06 537.231 497.065 515.49 490.6 520.072z"/>
<path style="fill:#436970; stroke:none;" d="M494 519L495 520L494 519M540 519L541 520L540 519M543 519L544 520L543 519M559.333 519.667L559.667 520.333L559.333 519.667M240 520L240 523L241 523L240 520M254 520L255 521L254 520M323 520L323 525L324 525L323 520M348 520L349 521L348 520M354 520L355 521L354 520M381 520L381 521L408 521L381 520M474 520L474 541L475 541L474 520M264 521L265 522L264 521z"/>
<path style="fill:#509aa7; stroke:none;" d="M299 521L300 522L299 521z"/>
<path style="fill:#436970; stroke:none;" d="M379 521L380 522L379 521z"/>
<path style="fill:#facb20; stroke:none;" d="M380.318 522.028C376.717 524.437 378.246 529.635 382.059 530.682C387.069 532.058 404.226 533.068 408.482 529.972C411.698 527.633 410.504 522.369 406.867 521.318C401.722 519.831 384.812 519.021 380.318 522.028z"/>
<path style="fill:#509aa7; stroke:none;" d="M488 521L489 522L488 521z"/>
<path style="fill:#436970; stroke:none;" d="M496 521L497 522L496 521M538 521L539 522L538 521M545.333 521.667L545.667 522.333L545.333 521.667M299 522L299 540L300 540L299 522M309 522L309 526L310 526L309 522M347 522L348 523L347 522M369 522L369 546L370 546L369 522M488 522L488 540L489 540L488 522M285 523L285 539L286 539L285 523M355 523L355 547L356 547L355 523M410 523L411 524L410 523M537 523L538 524L537 523z"/>
<path style="fill:#509aa7; stroke:none;" d="M410 524L411 525L410 524z"/>
<path style="fill:#436970; stroke:none;" d="M497 524L497 528L498 528L497 524M346.333 525.667L346.667 526.333L346.333 525.667M254 526L254 527L265 527L254 526M322 526L323 527L322 526M311 527L312 528L311 527M321 527L322 528L321 527z"/>
<path style="fill:#509aa7; stroke:none;" d="M410 527L411 528L410 527M536 527L537 528L536 527z"/>
<path style="fill:#436970; stroke:none;" d="M314 528L314 529L319 529L314 528M410 528L411 529L410 528M536 528L536 546L537 546L536 528z"/>
<path style="fill:#509aa7; stroke:none;" d="M277 530L278 531L277 530z"/>
<path style="fill:#436970; stroke:none;" d="M379 530L380 531L379 530M381 531L381 532L407 532L381 531M275 532L276 533L275 532M254 533L254 534L273 534L254 533M312.667 534.333L313.333 534.667L312.667 534.333z"/>
<path style="fill:#509aa7; stroke:none;" d="M319 534L320 535L319 534z"/>
<path style="fill:#436970; stroke:none;" d="M320 534L321 535L320 534M497 534L497 537L498 537L497 534M310 535L311 536L310 535M322 535L323 536L322 535M309 537L309 540L310 540L309 537M323 537L323 542L324 542L323 537M268 538L268 539L274 539L268 538M589 538L590 539L589 538M240.333 539.667L240.667 540.333L240.333 539.667M266 539L267 540L266 539z"/>
<path style="fill:#509aa7; stroke:none;" d="M275 539L276 540L275 539z"/>
<path style="fill:#436970; stroke:none;" d="M496 539L497 540L496 539z"/>
<path style="fill:#509aa7; stroke:none;" d="M575 539L576 540L575 539M225 540L226 541L225 540z"/>
<path style="fill:#436970; stroke:none;" d="M226 540L226 541L230 541L226 540M254 540L255 541L254 540z"/>
<path style="fill:#509aa7; stroke:none;" d="M276 540L277 541L276 540z"/>
<path style="fill:#436970; stroke:none;" d="M495 540L496 541L495 540M575 540L575 543L576 543L575 540M592 540L592 541L596 541L592 540M231 541L232 542L231 541z"/>
<path style="fill:#509aa7; stroke:none;" d="M264 541L265 542L264 541z"/>
<path style="fill:#436970; stroke:none;" d="M494 541L495 542L494 541M597 541L598 542L597 541M209.333 542.667L209.667 543.333L209.333 542.667M263 542L264 543L263 542M277.333 542.667L277.667 543.333L277.333 542.667M286 542L287 543L286 542M308 542L309 543L308 542M491.667 542.333L492.333 542.667L491.667 542.333M232 543L232 548L233 548L232 543M241 543L242 544L241 543M257 543L258 544L257 543M261 543L262 544L261 543M302 543L303 544L302 543M306 543L307 544L306 543z"/>
<path style="fill:#509aa7; stroke:none;" d="M598 543L599 544L598 543z"/>
<path style="fill:#436970; stroke:none;" d="M287 544L288 545L287 544M322 544L323 545L322 544M475 544L476 545L475 544M242 545L243 546L242 545M210 546L211 547L210 546M276 546L277 547L276 546M288 546L289 547L288 546M321 546L322 547L321 546M345.333 546.667L345.667 547.333L345.333 546.667M476 546L477 547L476 546M559 546L559 549L560 549L559 546M576 546L577 547L576 546M289 547L290 548L289 547M320 547L321 548L320 547M497 547L498 548L497 547M211 548L212 549L211 548M244 548L245 549L244 548M290 548L291 549L290 548M319 548L320 549L319 548M332 548L333 549L332 548M435 548L436 549L435 548M462 548L463 549L462 548M546 548L547 549L546 548M577 548L578 549L577 548M598 548L599 549L598 548z"/>
<path style="fill:#509aa7; stroke:none;" d="M231 549L232 550L231 549z"/>
<path style="fill:#436970; stroke:none;" d="M273 549L274 550L273 549M291 549L292 550L291 549M318 549L319 550L318 549M356 549L357 550L356 549M368 549L369 550L368 549M478 549L479 550L478 549z"/>
<path style="fill:#509aa7; stroke:none;" d="M523 549L524 550L523 549z"/>
<path style="fill:#436970; stroke:none;" d="M535 549L536 550L535 549M578 549L579 550L578 549z"/>
<path style="fill:#509aa7; stroke:none;" d="M213 550L214 551L213 550z"/>
<path style="fill:#436970; stroke:none;" d="M247 550L248 551L247 550M293 550L294 551L293 550M316 550L317 551L316 550M333 550L334 551L333 550M344 550L345 551L344 550z"/>
<path style="fill:#509aa7; stroke:none;" d="M434 550L435 551L434 550z"/>
<path style="fill:#436970; stroke:none;" d="M461 550L462 551L461 550M495 550L496 551L495 550M547 550L548 551L547 550M558 550L559 551L558 550M579 550L580 551L579 550M214 551L215 552L214 551M229 551L230 552L229 551M249 551L250 552L249 551M269 551L270 552L269 551M295 551L296 552L295 551M314 551L315 552L314 551M343 551L344 552L343 551M357 551L358 552L357 551M424 551L425 552L424 551M451 551L452 552L451 551M481 551L482 552L481 551M524 551L525 552L524 551z"/>
<path style="fill:#509aa7; stroke:none;" d="M548 551L549 552L548 551z"/>
<path style="fill:#436970; stroke:none;" d="M557 551L558 552L557 551M595 551L596 552L595 551M217 552L218 553L217 552z"/>
<path style="fill:#509aa7; stroke:none;" d="M226 552L227 553L226 552z"/>
<path style="fill:#436970; stroke:none;" d="M227 552L228 553L227 552M252.667 552.333L253.333 552.667L252.667 552.333M264 552L264 553L267 553L264 552M298 552L299 553L298 552z"/>
<path style="fill:#509aa7; stroke:none;" d="M299 552L300 553L299 552M309 552L310 553L309 552z"/>
<path style="fill:#436970; stroke:none;" d="M310.667 552.333L311.333 552.667L310.667 552.333M335 552L336 553L335 552M359 552L360 553L359 552M365 552L366 553L365 552z"/>
<path style="fill:#509aa7; stroke:none;" d="M426 552L427 553L426 552z"/>
<path style="fill:#436970; stroke:none;" d="M432 552L433 553L432 552z"/>
<path style="fill:#509aa7; stroke:none;" d="M453 552L454 553L453 552z"/>
<path style="fill:#436970; stroke:none;" d="M459 552L460 553L459 552M483.667 552.333L484.333 552.667L483.667 552.333z"/>
<path style="fill:#509aa7; stroke:none;" d="M491 552L492 553L491 552M526 552L527 553L526 552z"/>
<path style="fill:#436970; stroke:none;" d="M532 552L533 553L532 552M549 552L550 553L549 552M556 552L557 553L556 552M583 552L584 553L583 552M593 552L594 553L593 552M478 556L479 557L478 556M484.667 556.333L485.333 556.667L484.667 556.333z"/>
<path style="fill:#509aa7; stroke:none;" d="M476 557L477 558L476 557z"/>
<path style="fill:#436970; stroke:none;" d="M487 557L488 558L487 557M497.333 557.667L497.667 558.333L497.333 557.667M475 558L476 559L475 558M488 559L489 560L488 559M496 560L497 561L496 560M490 561L491 562L490 561M494 561L495 562L494 561M510 561L511 562L510 561M475 562L476 563L475 562M509 563L510 564L509 563M476 564L477 565L476 564M508 564L509 565L508 564z"/>
<path style="fill:#509aa7; stroke:none;" d="M479 567L480 568L479 567z"/>
<path style="fill:#436970; stroke:none;" d="M505 567L506 568L505 567M480 568L481 569L480 568M483 569L484 570L483 569M501 569L502 570L501 569M486 570L486 571L490 571L486 570z"/>
<path style="fill:#509aa7; stroke:none;" d="M496 570L497 571L496 570z"/>
<path style="fill:#436970; stroke:none;" d="M497.667 570.333L498.333 570.667L497.667 570.333M262 584L262 585L266 585L262 584M382 584L382 585L386 585L382 584M401 584L401 585L405 585L401 584M491 584L491 585L494 585L491 584M535 584L535 585L539 585L535 584z"/>
<path style="fill:#509aa7; stroke:none;" d="M259 585L260 586L259 585z"/>
<path style="fill:#60e6fc; stroke:none;" d="M262 607L261 602L256 603C257.751 609.545 268.604 613.964 270.667 604.981C272.126 598.628 266.281 597.318 263.635 592.934C261.37 589.182 265.568 590.352 267 593C276.083 589.973 262.928 580.461 258.18 587.434C252.496 595.779 271.846 601.723 262 607z"/>
<path style="fill:#436970; stroke:none;" d="M268 585L269 586L268 585z"/>
<path style="fill:#509aa7; stroke:none;" d="M276 585L277 586L276 585z"/>
<path style="fill:#60e6fc; stroke:none;" d="M276 610L280 610L281 592C283.085 596.704 283.618 602.305 289 604L293 592L294 592L294 610L298 610C298 603.379 299.573 594.502 297.682 588.148C296.029 582.593 290.791 586.773 289.389 590.015C288.535 591.989 287.874 594.03 287 596C286.126 594.03 285.465 591.989 284.611 590.015C283.209 586.773 277.971 582.593 276.318 588.148C274.427 594.502 276 603.379 276 610z"/>
<path style="fill:#509aa7; stroke:none;" d="M282 585L283 586L282 585M291 585L292 586L291 585M297 585L298 586L297 585z"/>
<path style="fill:#436970; stroke:none;" d="M308 585L307 587L308 585z"/>
<path style="fill:#60e6fc; stroke:none;" d="M304 610C307.321 608.901 307.737 607.41 308 604L316 604L316 610C327.38 606.223 312.319 572.666 306.029 592.001C305.289 594.276 304.642 596.629 304.3 599C303.779 602.618 304 606.354 304 610z"/>
<path style="fill:#509aa7; stroke:none;" d="M314 585L315 586L314 585z"/>
<path style="fill:#436970; stroke:none;" d="M324 585L325 586L324 585z"/>
<path style="fill:#60e6fc; stroke:none;" d="M329 600C334.708 600.932 334.954 604.871 335 610L340 610L336 599C344.608 591.245 333.705 579.59 325.742 586.028C318.075 592.227 328.983 621.903 329 600z"/>
<path style="fill:#509aa7; stroke:none;" d="M334.667 585.333L335.333 585.667L334.667 585.333z"/>
<path style="fill:#436970; stroke:none;" d="M343 585L342 587L343 585z"/>
<path style="fill:#60e6fc; stroke:none;" d="M349 590L349 610C356.835 608.692 354 596.157 354 590L360 589C354.832 579.628 337.307 589.09 349 590z"/>
<path style="fill:#509aa7; stroke:none;" d="M358 585L359 586L358 585M379 585L380 586L379 585z"/>
<path style="fill:#60e6fc; stroke:none;" d="M382 607L381 602L376 603C377.751 609.545 388.604 613.964 390.667 604.981C392.126 598.628 386.281 597.318 383.635 592.934C381.37 589.182 385.568 590.352 387 593C396.083 589.973 382.928 580.461 378.18 587.434C372.496 595.779 391.846 601.723 382 607z"/>
<path style="fill:#436970; stroke:none;" d="M388 585L389 586L388 585M398 585L399 586L398 585z"/>
<path style="fill:#509aa7; stroke:none;" d="M399 585L400 586L399 585z"/>
<path style="fill:#60e6fc; stroke:none;" d="M400.044 585.657C390.578 588.698 392.443 613.433 405.956 609.566C415.25 606.906 413.751 581.252 400.044 585.657z"/>
<path style="fill:#509aa7; stroke:none;" d="M406 585L407 586L406 585z"/>
<path style="fill:#436970; stroke:none;" d="M407 585L408 586L407 585z"/>
<path style="fill:#509aa7; stroke:none;" d="M417 585L418 586L417 585z"/>
<path style="fill:#60e6fc; stroke:none;" d="M418 585L417 610C424.777 610 433.334 605.146 421 605L420 585L418 585z"/>
<path style="fill:#509aa7; stroke:none;" d="M420 585L421 586L420 585M434 585L433 587L434 585z"/>
<path style="fill:#60e6fc; stroke:none;" d="M435.259 586.346C432.331 587.448 433.005 592.609 433 595C432.986 602.149 434.505 613.601 444.941 609.258C450.882 606.786 449.093 597.171 448.995 592.001C448.964 590.338 449.116 585.336 446.17 585.921C441.395 586.87 446.689 606.665 440.835 605.218C436.604 604.171 441.83 583.872 435.259 586.346z"/>
<path style="fill:#509aa7; stroke:none;" d="M437 585L438 586L437 585z"/>
<path style="fill:#436970; stroke:none;" d="M444 585L445 586L444 585z"/>
<path style="fill:#509aa7; stroke:none;" d="M448 585L449 586L448 585z"/>
<path style="fill:#436970; stroke:none;" d="M453 585L454 586L453 585z"/>
<path style="fill:#509aa7; stroke:none;" d="M454 585L455 586L454 585z"/>
<path style="fill:#60e6fc; stroke:none;" d="M453 586C454.099 589.321 455.59 589.737 459 590C459 592.728 457.452 609.949 461.83 609.079C465.877 608.274 464 593.217 464 590C467.41 589.737 468.901 589.321 470 586L453 586z"/>
<path style="fill:#509aa7; stroke:none;" d="M468 585L469 586L468 585z"/>
<path style="fill:#436970; stroke:none;" d="M469 585L470 586L469 585z"/>
<path style="fill:#509aa7; stroke:none;" d="M474 585L475 586L474 585z"/>
<path style="fill:#60e6fc; stroke:none;" d="M474 610C487.135 607.808 474.043 573.16 474 594L474 600L474 610z"/>
<path style="fill:#436970; stroke:none;" d="M478 585L479 586L478 585z"/>
<path style="fill:#509aa7; stroke:none;" d="M488 585L489 586L488 585z"/>
<path style="fill:#60e6fc; stroke:none;" d="M489.059 585.743C480.788 589.156 482.753 614.646 495.941 609.396C504.155 606.126 502.373 580.249 489.059 585.743z"/>
<path style="fill:#509aa7; stroke:none;" d="M496 585L497 586L496 585M506 585L505 609L506 609L506 585z"/>
<path style="fill:#60e6fc; stroke:none;" d="M506 610L510 610L510 592L511 592C513.459 599.556 514.623 609.693 524 610L523 585L521 585L520 603C517.401 598.818 515.654 587.401 510.795 585.662C503.557 583.071 506 605.971 506 610z"/>
<path style="fill:#436970; stroke:none;" d="M512 585L513 586L512 585z"/>
<path style="fill:#509aa7; stroke:none;" d="M520 585L521 586L520 585M523 585L524 586L523 585M532 585L533 586L532 585z"/>
<path style="fill:#60e6fc; stroke:none;" d="M533.148 585.743C522.581 590.458 538.461 599.373 537.968 603.833C537.454 608.474 532.03 600.773 530.118 603.658C526.722 608.782 537.044 610.453 539.941 609.257C551.858 604.339 535.437 595.915 535.676 591.164C535.877 587.161 541.106 594.03 542.882 591.342C546.201 586.318 536.086 584.432 533.148 585.743z"/>
<path style="fill:#509aa7; stroke:none;" d="M540 585L541 586L540 585z"/>
<path style="fill:#436970; stroke:none;" d="M541 585L542 586L541 585z"/>
<path style="fill:#509aa7; stroke:none;" d="M269 586L270 587L269 586z"/>
<path style="fill:#436970; stroke:none;" d="M275 586L276 587L275 586z"/>
<path style="fill:#509aa7; stroke:none;" d="M283 586L284 587L283 586z"/>
<path style="fill:#436970; stroke:none;" d="M290 586L291 587L290 586z"/>
<path style="fill:#509aa7; stroke:none;" d="M298 586L298 609L299 609L298 586M315 586L316 587L315 586M324 586L325 587L324 586M337 586L338 587L337 586M359 586L360 587L359 586M389 586L390 587L389 586M397 586L398 587L397 586z"/>
<path style="fill:#436970; stroke:none;" d="M416 586L417 587L416 586z"/>
<path style="fill:#509aa7; stroke:none;" d="M421 586L421 605L422 605L421 586M438 586L439 587L438 586z"/>
<path style="fill:#436970; stroke:none;" d="M449 586L450 587L449 586M473 586L474 587L473 586M486 586L487 587L486 586M498 586L499 587L498 586M519 586L520 587L519 586M524 586L525 587L524 586M530 586L531 587L530 586M542 586L543 587L542 586z"/>
<path style="fill:#509aa7; stroke:none;" d="M257 587L258 588L257 587M270 587L271 588L270 587M275 587L275 609L276 609L275 587M307 587L308 588L307 587M342 587L343 588L342 587M377 587L378 588L377 587M390 587L391 588L390 587M416 587L416 609L417 609L416 587z"/>
<path style="fill:#436970; stroke:none;" d="M443 587L443 604L444 604L443 587z"/>
<path style="fill:#509aa7; stroke:none;" d="M449 587L449 605L450 605L449 587z"/>
<path style="fill:#436970; stroke:none;" d="M452 587L453 588L452 587M470 587L471 588L470 587z"/>
<path style="fill:#509aa7; stroke:none;" d="M473 587L473 609L474 609L473 587z"/>
<path style="fill:#436970; stroke:none;" d="M479 587L479 608L480 608L479 587M485 587L486 588L485 587M499 587L500 588L499 587z"/>
<path style="fill:#509aa7; stroke:none;" d="M513 587L514 588L513 587M519 587L519 603L520 603L519 587M524 587L524 608L525 608L524 587z"/>
<path style="fill:#436970; stroke:none;" d="M543 587L544 588L543 587z"/>
<path style="fill:#509aa7; stroke:none;" d="M263.667 588.333L264.333 588.667L263.667 588.333z"/>
<path style="fill:#436970; stroke:none;" d="M284 588L285 589L284 588M289 588L290 589L289 588M316 588L317 589L316 588z"/>
<path style="fill:#509aa7; stroke:none;" d="M339 588L340 589L339 588z"/>
<path style="fill:#436970; stroke:none;" d="M342 588L343 589L342 588z"/>
<path style="fill:#509aa7; stroke:none;" d="M383.667 588.333L384.333 588.667L383.667 588.333M395 588L396 589L395 588M410 588L411 589L410 588z"/>
<path style="fill:#436970; stroke:none;" d="M529 588L530 589L529 588z"/>
<path style="fill:#509aa7; stroke:none;" d="M536 588L537 589L536 588M543 588L544 589L543 588z"/>
<path style="fill:#436970; stroke:none;" d="M256 589L257 590L256 589M262 589L263 590L262 589M265 589L266 590L265 589M271 589L271 592L272 592L271 589z"/>
<path style="fill:#509aa7; stroke:none;" d="M284 589L285 590L284 589M289 589L290 590L289 589z"/>
<path style="fill:#436970; stroke:none;" d="M306 589L307 590L306 589z"/>
<path style="fill:#509aa7; stroke:none;" d="M311 589L312 590L311 589M316 589L317 590L316 589M329 589L329 596L330 596L329 589z"/>
<path style="fill:#436970; stroke:none;" d="M330 589L330 590L333 590L330 589z"/>
<path style="fill:#509aa7; stroke:none;" d="M333 589L334 590L333 589z"/>
<path style="fill:#436970; stroke:none;" d="M340 589L341 590L340 589z"/>
<path style="fill:#509aa7; stroke:none;" d="M343 589L344 590L343 589z"/>
<path style="fill:#436970; stroke:none;" d="M359 589L360 590L359 589M376 589L377 590L376 589M382 589L383 590L382 589M385 589L386 590L385 589M391 589L391 592L392 592L391 589z"/>
<path style="fill:#509aa7; stroke:none;" d="M402.667 589.333L403.333 589.667L402.667 589.333z"/>
<path style="fill:#436970; stroke:none;" d="M453 589L454 590L453 589M469 589L470 590L469 589M484 589L485 590L484 589z"/>
<path style="fill:#509aa7; stroke:none;" d="M490 590L490 591L495 591L490 590z"/>
<path style="fill:#436970; stroke:none;" d="M500 589L501 590L500 589M514 589L515 590L514 589z"/>
<path style="fill:#509aa7; stroke:none;" d="M529 589L529 594L530 594L529 589M538 589L539 590L538 589M256 590L256 593L257 593L256 590M261.333 590.667L261.667 591.333L261.333 590.667M266.333 590.667L266.667 591.333L266.333 590.667M306 590L307 591L306 590z"/>
<path style="fill:#436970; stroke:none;" d="M311 590L312 591L311 590z"/>
<path style="fill:#313131; stroke:none;" d="M330 590L330 596C334.773 594.549 335.301 590.887 330 590z"/>
<path style="fill:#436970; stroke:none;" d="M334 590L335 591L334 590z"/>
<path style="fill:#509aa7; stroke:none;" d="M340 590L340 594L341 594L340 590z"/>
<path style="fill:#436970; stroke:none;" d="M345 590L345 591L348 591L345 590z"/>
<path style="fill:#509aa7; stroke:none;" d="M348 590L348 608L349 608L348 590z"/>
<path style="fill:#436970; stroke:none;" d="M354 590L354 591L358 591L354 590z"/>
<path style="fill:#509aa7; stroke:none;" d="M376 590L376 593L377 593L376 590M381.333 590.667L381.667 591.333L381.333 590.667M386.333 590.667L386.667 591.333L386.333 590.667z"/>
<path style="fill:#436970; stroke:none;" d="M401 590L402 591L401 590z"/>
<path style="fill:#313131; stroke:none;" d="M402 590L402 606L404 606L404 590L402 590z"/>
<path style="fill:#436970; stroke:none;" d="M404 590L405 591L404 590M455 590L455 591L458 591L458 608L459 608C459 602.487 461.317 592.097 455 590z"/>
<path style="fill:#509aa7; stroke:none;" d="M458 590L459 591L458 590M464 590L465 591L464 590z"/>
<path style="fill:#436970; stroke:none;" d="M465 590L465 591L468 591L465 590z"/>
<path style="fill:#509aa7; stroke:none;" d="M484 590L484 606L485 606L484 590z"/>
<path style="fill:#313131; stroke:none;" d="M491 590L492 606L493 606L494 590L491 590z"/>
<path style="fill:#509aa7; stroke:none;" d="M500 590L500 606L501 606L500 590M514 590L515 591L514 590M534.333 590.667L534.667 591.333L534.333 590.667z"/>
<path style="fill:#436970; stroke:none;" d="M285 591L286 592L285 591M288 591L289 592L288 591z"/>
<path style="fill:#313131; stroke:none;" d="M311 591L309 599L314 599L311 591z"/>
<path style="fill:#509aa7; stroke:none;" d="M312 591L313 592L312 591z"/>
<path style="fill:#436970; stroke:none;" d="M317 591L318 592L317 591M394 591L394 605L395 605L394 591z"/>
<path style="fill:#509aa7; stroke:none;" d="M400 591L400 604L401 604L400 591z"/>
<path style="fill:#436970; stroke:none;" d="M411 591L411 605L412 605L411 591M464 591L464 608L465 608L464 591M490 591L490 605L491 605L490 591M494 591L494 605L495 605L494 591M266 592L267 593L266 592z"/>
<path style="fill:#509aa7; stroke:none;" d="M270 592L271 593L270 592M281 592L280 609L281 609L281 592M285 592L286 593L285 592M288 592L289 593L288 592M293 592L293 609L294 609L293 592z"/>
<path style="fill:#436970; stroke:none;" d="M305 592L306 593L305 592M312 592L313 593L312 592z"/>
<path style="fill:#509aa7; stroke:none;" d="M317 592L318 593L317 592M335 592L336 593L335 592z"/>
<path style="fill:#436970; stroke:none;" d="M386 592L387 593L386 592z"/>
<path style="fill:#509aa7; stroke:none;" d="M390 592L391 593L390 592M405 592L405 604L406 604L405 592M510 592L510 609L511 609L510 592z"/>
<path style="fill:#436970; stroke:none;" d="M515 592L516 593L515 592M539 592L540 593L539 592M543 592L544 593L543 592M256 593L257 594L256 593M268 593L269 594L268 593M281 593L282 594L281 593z"/>
<path style="fill:#509aa7; stroke:none;" d="M305 593L306 594L305 593M310 593L311 594L310 593z"/>
<path style="fill:#436970; stroke:none;" d="M376 593L377 594L376 593M388 593L389 594L388 593z"/>
<path style="fill:#509aa7; stroke:none;" d="M515 593L516 594L515 593M535 593L536 594L535 593z"/>
<path style="fill:#436970; stroke:none;" d="M541 593L542 594L541 593z"/>
<path style="fill:#509aa7; stroke:none;" d="M257 594L258 595L257 594z"/>
<path style="fill:#436970; stroke:none;" d="M264 594L265 595L264 594M286.667 594.333L287.333 594.667L286.667 594.333M292 594L293 595L292 594M310 594L311 595L310 594z"/>
<path style="fill:#509aa7; stroke:none;" d="M313.333 594.667L313.667 595.333L313.333 594.667z"/>
<path style="fill:#436970; stroke:none;" d="M334 594L335 595L334 594M340 594L341 595L340 594z"/>
<path style="fill:#509aa7; stroke:none;" d="M377 594L378 595L377 594z"/>
<path style="fill:#436970; stroke:none;" d="M384 594L385 595L384 594M511 594L512 595L511 594M537 594L538 595L537 594z"/>
<path style="fill:#509aa7; stroke:none;" d="M265 595L266 596L265 595z"/>
<path style="fill:#436970; stroke:none;" d="M266 595L267 596L266 595z"/>
<path style="fill:#509aa7; stroke:none;" d="M282 595L283 596L282 595M286.667 595.333L287.333 595.667L286.667 595.333z"/>
<path style="fill:#436970; stroke:none;" d="M318 595L319 596L318 595M333 595L334 596L333 595z"/>
<path style="fill:#509aa7; stroke:none;" d="M385 595L386 596L385 595z"/>
<path style="fill:#436970; stroke:none;" d="M386 595L387 596L386 595z"/>
<path style="fill:#509aa7; stroke:none;" d="M516 595L517 596L516 595z"/>
<path style="fill:#436970; stroke:none;" d="M530 595L531 596L530 595z"/>
<path style="fill:#509aa7; stroke:none;" d="M538 595L539 596L538 595z"/>
<path style="fill:#436970; stroke:none;" d="M258 596L259 597L258 596z"/>
<path style="fill:#509aa7; stroke:none;" d="M267 596L268 597L267 596z"/>
<path style="fill:#436970; stroke:none;" d="M282 596L283 597L282 596z"/>
<path style="fill:#509aa7; stroke:none;" d="M291 596L292 597L291 596z"/>
<path style="fill:#436970; stroke:none;" d="M304 596L305 597L304 596z"/>
<path style="fill:#509aa7; stroke:none;" d="M309.333 596.667L309.667 597.333L309.333 596.667M318 596L319 597L318 596z"/>
<path style="fill:#436970; stroke:none;" d="M339 596L340 597L339 596M378 596L379 597L378 596z"/>
<path style="fill:#509aa7; stroke:none;" d="M387 596L388 597L387 596M512 596L513 597L512 596z"/>
<path style="fill:#436970; stroke:none;" d="M531 596L532 597L531 596M540 596L541 597L540 596z"/>
<path style="fill:#509aa7; stroke:none;" d="M260 597L261 598L260 597z"/>
<path style="fill:#436970; stroke:none;" d="M291 597L292 598L291 597z"/>
<path style="fill:#509aa7; stroke:none;" d="M304 597L305 598L304 597z"/>
<path style="fill:#436970; stroke:none;" d="M338 597L339 598L338 597z"/>
<path style="fill:#509aa7; stroke:none;" d="M380 597L381 598L380 597z"/>
<path style="fill:#436970; stroke:none;" d="M512 597L513 598L512 597M532 597L533 598L532 597z"/>
<path style="fill:#509aa7; stroke:none;" d="M541 597L542 598L541 597z"/>
<path style="fill:#436970; stroke:none;" d="M261 598L262 599L261 598z"/>
<path style="fill:#509aa7; stroke:none;" d="M283 598L284 599L283 598M314 598L315 599L314 598z"/>
<path style="fill:#436970; stroke:none;" d="M319 598L320 599L319 598z"/>
<path style="fill:#509aa7; stroke:none;" d="M336 598L337 599L336 598z"/>
<path style="fill:#436970; stroke:none;" d="M381 598L382 599L381 598z"/>
<path style="fill:#509aa7; stroke:none;" d="M517 598L518 599L517 598M534 598L535 599L534 598M542 598L543 599L542 598M263 599L264 600L263 599M270 599L271 600L270 599z"/>
<path style="fill:#436970; stroke:none;" d="M283 599L284 600L283 599z"/>
<path style="fill:#509aa7; stroke:none;" d="M290 599L291 600L290 599z"/>
<path style="fill:#436970; stroke:none;" d="M303 599L304 600L303 599z"/>
<path style="fill:#509aa7; stroke:none;" d="M309 599L309 600L314 600L309 599M319 599L320 600L319 599M383 599L384 600L383 599M390 599L391 600L390 599M513 599L514 600L513 599z"/>
<path style="fill:#436970; stroke:none;" d="M535 599L536 600L535 599z"/>
<path style="fill:#509aa7; stroke:none;" d="M543 599L544 600L543 599M264 600L265 601L264 600z"/>
<path style="fill:#436970; stroke:none;" d="M271 600L272 601L271 600M290 600L291 601L290 600z"/>
<path style="fill:#509aa7; stroke:none;" d="M303 600L303 609L304 609L303 600M329 600L329 608L330 608L329 600M333 600L334 601L333 600M384 600L385 601L384 600z"/>
<path style="fill:#436970; stroke:none;" d="M391 600L392 601L391 600M518 600L519 601L518 600z"/>
<path style="fill:#509aa7; stroke:none;" d="M537 600L538 601L537 600z"/>
<path style="fill:#436970; stroke:none;" d="M257 601L258 602L257 601z"/>
<path style="fill:#509aa7; stroke:none;" d="M258 601L259 602L258 601z"/>
<path style="fill:#436970; stroke:none;" d="M259 601L260 602L259 601z"/>
<path style="fill:#509aa7; stroke:none;" d="M265 601L266 602L265 601M271 601L271 606L272 606L271 601M284 601L285 602L284 601z"/>
<path style="fill:#436970; stroke:none;" d="M339 601L340 602L339 601M377 601L378 602L377 601z"/>
<path style="fill:#509aa7; stroke:none;" d="M378 601L379 602L378 601z"/>
<path style="fill:#436970; stroke:none;" d="M379 601L380 602L379 601z"/>
<path style="fill:#509aa7; stroke:none;" d="M385 601L386 602L385 601M391 601L391 606L392 606L391 601z"/>
<path style="fill:#436970; stroke:none;" d="M530 601L531 602L530 601z"/>
<path style="fill:#509aa7; stroke:none;" d="M531 601L532 602L531 601z"/>
<path style="fill:#436970; stroke:none;" d="M532 601L533 602L532 601M544 601L545 602L544 601z"/>
<path style="fill:#509aa7; stroke:none;" d="M256 602L257 603L256 602z"/>
<path style="fill:#436970; stroke:none;" d="M284 602L285 603L284 602z"/>
<path style="fill:#509aa7; stroke:none;" d="M289 602L290 603L289 602M334 602L334 609L335 609L334 602M339 602L339 606L340 606L339 602M376 602L377 603L376 602M514 602L515 603L514 602M529 602L530 603L529 602M533 602L534 603L533 602z"/>
<path style="fill:#436970; stroke:none;" d="M538 602L539 603L538 602z"/>
<path style="fill:#509aa7; stroke:none;" d="M544 602L544 605L545 605L544 602M261.333 603.667L261.667 604.333L261.333 603.667M266.333 603.667L266.667 604.333L266.333 603.667M285 603L286 604L285 603z"/>
<path style="fill:#436970; stroke:none;" d="M320 603L320 608L321 608L320 603z"/>
<path style="fill:#509aa7; stroke:none;" d="M381.333 603.667L381.667 604.333L381.333 603.667M386.333 603.667L386.667 604.333L386.333 603.667z"/>
<path style="fill:#436970; stroke:none;" d="M534.333 603.667L534.667 604.333L534.333 603.667M286 604L287 605L286 604z"/>
<path style="fill:#509aa7; stroke:none;" d="M287 604L288 605L287 604z"/>
<path style="fill:#436970; stroke:none;" d="M308 604L308 608L309 608L308 604z"/>
<path style="fill:#509aa7; stroke:none;" d="M315 604L315 609L316 609L315 604z"/>
<path style="fill:#436970; stroke:none;" d="M439 604L440 605L439 604z"/>
<path style="fill:#509aa7; stroke:none;" d="M443 604L444 605L443 604M515 604L516 605L515 604M256 605L257 606L256 605z"/>
<path style="fill:#436970; stroke:none;" d="M265 605L266 606L265 605z"/>
<path style="fill:#509aa7; stroke:none;" d="M376 605L377 606L376 605z"/>
<path style="fill:#436970; stroke:none;" d="M385 605L386 606L385 605z"/>
<path style="fill:#509aa7; stroke:none;" d="M401 605L402 606L401 605M404 605L405 606L404 605z"/>
<path style="fill:#436970; stroke:none;" d="M428 605L429 606L428 605z"/>
<path style="fill:#509aa7; stroke:none;" d="M433 605L434 606L433 605M439 605L440 606L439 605z"/>
<path style="fill:#436970; stroke:none;" d="M449 605L450 606L449 605M491 605L492 606L491 605M493 605L494 606L493 605M515 605L516 606L515 605z"/>
<path style="fill:#509aa7; stroke:none;" d="M534 605L535 606L534 605M538 605L539 606L538 605z"/>
<path style="fill:#436970; stroke:none;" d="M544 605L545 606L544 605M256 606L257 607L256 606z"/>
<path style="fill:#509aa7; stroke:none;" d="M262 606L262 607L265 607L262 606z"/>
<path style="fill:#436970; stroke:none;" d="M376 606L377 607L376 606z"/>
<path style="fill:#509aa7; stroke:none;" d="M382 606L382 607L385 607L382 606M395 606L396 607L395 606M410 606L411 607L410 606z"/>
<path style="fill:#436970; stroke:none;" d="M433 606L434 607L433 606z"/>
<path style="fill:#509aa7; stroke:none;" d="M441 606L442 607L441 606M529 606L530 607L529 606M535 606L535 607L538 607L535 606M270 607L271 608L270 607M340.333 607.667L340.667 608.333L340.333 607.667M390 607L391 608L390 607z"/>
<path style="fill:#436970; stroke:none;" d="M429.333 607.667L429.667 608.333L429.333 607.667z"/>
<path style="fill:#509aa7; stroke:none;" d="M434 607L435 608L434 607M448 607L449 608L448 607M485 607L486 608L485 607M499 607L500 608L499 607M516 607L517 608L516 607z"/>
<path style="fill:#436970; stroke:none;" d="M543 607L544 608L543 607M257 608L258 609L257 608z"/>
<path style="fill:#509aa7; stroke:none;" d="M269 608L270 609L269 608z"/>
<path style="fill:#436970; stroke:none;" d="M329 608L330 609L329 608M348 608L349 609L348 608M377 608L378 609L377 608z"/>
<path style="fill:#509aa7; stroke:none;" d="M389 608L390 609L389 608z"/>
<path style="fill:#436970; stroke:none;" d="M396 608L397 609L396 608M409 608L410 609L409 608z"/>
<path style="fill:#509aa7; stroke:none;" d="M435 608L436 609L435 608M447 608L448 609L447 608M486 608L487 609L486 608M498 608L499 609L498 608z"/>
<path style="fill:#436970; stroke:none;" d="M516 608L517 609L516 608M524 608L525 609L524 608M530 608L531 609L530 608z"/>
<path style="fill:#509aa7; stroke:none;" d="M542 608L543 609L542 608M259 609L260 610L259 609z"/>
<path style="fill:#436970; stroke:none;" d="M268 609L269 610L268 609M280 609L281 610L280 609M298 609L299 610L298 609M303 609L304 610L303 609z"/>
<path style="fill:#509aa7; stroke:none;" d="M307 609L308 610L307 609z"/>
<path style="fill:#436970; stroke:none;" d="M315 609L316 610L315 609z"/>
<path style="fill:#509aa7; stroke:none;" d="M319 609L320 610L319 609z"/>
<path style="fill:#436970; stroke:none;" d="M324 609L325 610L324 609z"/>
<path style="fill:#509aa7; stroke:none;" d="M328 609L329 610L328 609z"/>
<path style="fill:#436970; stroke:none;" d="M340 609L341 610L340 609M353 609L354 610L353 609z"/>
<path style="fill:#509aa7; stroke:none;" d="M379 609L380 610L379 609z"/>
<path style="fill:#436970; stroke:none;" d="M388 609L389 610L388 609z"/>
<path style="fill:#509aa7; stroke:none;" d="M398 609L399 610L398 609M407 609L408 610L407 609z"/>
<path style="fill:#436970; stroke:none;" d="M416 609L417 610L416 609z"/>
<path style="fill:#509aa7; stroke:none;" d="M428 609L429 610L428 609z"/>
<path style="fill:#436970; stroke:none;" d="M436 609L437 610L436 609z"/>
<path style="fill:#509aa7; stroke:none;" d="M445 609L446 610L445 609z"/>
<path style="fill:#436970; stroke:none;" d="M446 609L447 610L446 609z"/>
<path style="fill:#509aa7; stroke:none;" d="M459 609L460 610L459 609M463 609L464 610L463 609z"/>
<path style="fill:#436970; stroke:none;" d="M478 609L479 610L478 609M487 609L488 610L487 609z"/>
<path style="fill:#509aa7; stroke:none;" d="M488 609L489 610L488 609z"/>
<path style="fill:#436970; stroke:none;" d="M497 609L498 610L497 609M505 609L506 610L505 609M517 609L518 610L517 609M531 609L532 610L531 609z"/>
<path style="fill:#509aa7; stroke:none;" d="M532 609L533 610L532 609M540 609L541 610L540 609z"/>
<path style="fill:#436970; stroke:none;" d="M541 609L542 610L541 609M261 610L262 611L261 610z"/>
<path style="fill:#509aa7; stroke:none;" d="M262 610L262 611L265 611L262 610z"/>
<path style="fill:#436970; stroke:none;" d="M265.667 610.333L266.333 610.667L265.667 610.333M277.667 610.333L278.333 610.667L277.667 610.333M295.667 610.333L296.333 610.667L295.667 610.333M305.667 610.333L306.333 610.667L305.667 610.333M317.667 610.333L318.333 610.667L317.667 610.333M326.667 610.333L327.333 610.667L326.667 610.333M336 610L337 611L336 610z"/>
<path style="fill:#509aa7; stroke:none;" d="M337.667 610.333L338.333 610.667L337.667 610.333z"/>
<path style="fill:#436970; stroke:none;" d="M350.667 610.333L351.333 610.667L350.667 610.333M381 610L382 611L381 610z"/>
<path style="fill:#509aa7; stroke:none;" d="M382 610L382 611L385 611L382 610z"/>
<path style="fill:#436970; stroke:none;" d="M385.667 610.333L386.333 610.667L385.667 610.333M400 610L401 611L400 610z"/>
<path style="fill:#509aa7; stroke:none;" d="M401 610L401 611L405 611L401 610z"/>
<path style="fill:#436970; stroke:none;" d="M405 610L406 611L405 610M418 610L418 611L427 611L418 610M439 610L440 611L439 610z"/>
<path style="fill:#509aa7; stroke:none;" d="M440 610L440 611L443 611L440 610z"/>
<path style="fill:#436970; stroke:none;" d="M443 610L444 611L443 610M461 610L462 611L461 610M475.667 610.333L476.333 610.667L475.667 610.333M490 610L491 611L490 610z"/>
<path style="fill:#509aa7; stroke:none;" d="M491 610L491 611L494 611L491 610z"/>
<path style="fill:#436970; stroke:none;" d="M494 610L495 611L494 610M507.667 610.333L508.333 610.667L507.667 610.333M519 610L519 611L523 611L519 610M534 610L535 611L534 610z"/>
<path style="fill:#509aa7; stroke:none;" d="M535 610L535 611L538 611L535 610z"/>
<path style="fill:#436970; stroke:none;" d="M538 610L539 611L538 610z"/>
</svg>
