<?xml version="1.0" encoding="iso-8859-1"?>
<!-- Generator: Adobe Illustrator 17.1.0, SVG Export Plug-In . SVG Version: 6.00 Build 0)  -->
<!DOCTYPE svg PUBLIC "-//W3C//DTD SVG 1.1//EN" "http://www.w3.org/Graphics/SVG/1.1/DTD/svg11.dtd">
<svg version="1.1" id="Capa_1" xmlns="http://www.w3.org/2000/svg" xmlns:xlink="http://www.w3.org/1999/xlink" x="0px" y="0px"
	 viewBox="0 0 202.704 202.704" style="enable-background:new 0 0 202.704 202.704;" xml:space="preserve">
<path d="M192.487,202.704H10.217c-1.657,0-3-1.343-3-3v-34.815c0-13.469,8.08-25.404,20.585-30.406l43.126-17.25
	c0.755-0.302,1.601-0.285,2.342,0.048c0.742,0.333,1.317,0.952,1.594,1.717l12.694,35.096l4.177-12.008l-3.692-9.024
	c-0.379-0.925-0.271-1.979,0.285-2.808c0.558-0.83,1.491-1.328,2.491-1.328h21.066c1,0,1.934,0.498,2.491,1.328
	c0.557,0.83,0.664,1.883,0.285,2.808l-3.691,9.025l4.177,12.008l12.694-35.096c0.276-0.765,0.852-1.384,1.594-1.717
	c0.741-0.333,1.587-0.35,2.342-0.048l43.125,17.25c12.506,5.002,20.586,16.938,20.586,30.406v34.815
	C195.487,201.361,194.145,202.704,192.487,202.704z M13.217,196.704h176.271v-31.815c0-11.001-6.6-20.75-16.814-24.835
	l-40.245-16.098l-14.516,40.131c-0.432,1.194-1.57,1.971-2.84,1.979c-1.271-0.008-2.397-0.815-2.815-2.015l-7.326-21.066
	c-0.24-0.69-0.221-1.445,0.057-2.121l2.429-5.939H95.287l2.43,5.938c0.277,0.677,0.297,1.431,0.058,2.122l-7.327,21.066
	c-0.418,1.2-1.545,2.007-2.815,2.015c-1.307-0.004-2.408-0.785-2.84-1.979l-14.516-40.131L30.03,140.054
	c-10.214,4.085-16.813,13.833-16.813,24.835V196.704z M169.459,189.581h-33.577c-1.657,0-3-1.343-3-3v-20.67c0-1.657,1.343-3,3-3
	h33.577c1.657,0,3,1.343,3,3v20.67C172.459,188.237,171.116,189.581,169.459,189.581z M138.882,183.581h27.577v-14.67h-27.577
	V183.581z M101.352,116.527c-4.644,0-9.172-0.862-13.459-2.563c-3.313-1.315-6.051-2.969-8.136-4.916
	c-5.759-5.375-11.746-16.877-13.953-21.355c-3.748-0.182-11.435-2.18-14.763-14.903c-1.652-6.318-1.275-11.396,1.12-15.092
	c1.307-2.018,2.952-3.206,4.313-3.896c-0.024-1.576,0.012-3.873,0.264-6.625c-2.109-3.221-6.722-12.826,1.198-26.884
	c0.002-0.003,0.003-0.005,0.005-0.008c0,0,0.009-0.016,0.011-0.02c0,0,0,0,0.001,0c0.001-0.002,0.04-0.071,0.043-0.077c0,0,0,0,0,0
	c0.007-0.011,0.014-0.023,0.02-0.034c0.008-0.013,0.015-0.026,0.022-0.039c0.002-0.003,0.004-0.006,0.006-0.009
	c5.184-9.066,11.891-10.976,16.613-10.979c0.001,0,0.002,0,0.003,0l0,0c0.001,0,0.001,0,0.001,0h0.001c0.002,0,0.005,0,0.005,0
	s0,0,0.001,0l0,0l0,0h0.001c1.158,0,2.202,0.118,3.087,0.279C79.908,5.624,85.944,0,102.786,0c0.001,0-0.001,0,0.001,0l0,0l0,0
	h0.001c0.01,0,0.02,0,0.03,0l0.762,0.004c0.007,0,0.014,0,0.021,0h0.005c0.01,0,0.019,0,0.027,0
	c11.117,0.123,19.981,4.198,25.502,7.636c10.488,5.131,16.901,15.851,18.474,21.415c0.688,2.437,1.033,5.27,1.023,8.419
	c0,0.001,0,0.002,0,0.003l0,0l0,0c0,0,0,0.001,0,0.002c0,0.003,0,0.007,0,0.011c0,0,0,0,0,0v0c0,0.001,0,0.003,0,0.004
	c0,0.002,0,0.005,0,0.008l0,0l0,0c0,0,0,0,0,0.001c0,0.004,0,0.009,0,0.014c0,0,0,0,0,0l0,0c0,0.004,0,0.009,0,0.013
	c0,0.005,0,0.011,0,0.016c-0.034,7.208-1.879,14.121-2.399,15.929c-0.001,0.111-0.002,0.219-0.004,0.323
	c1.361,0.69,3.007,1.878,4.313,3.896c2.396,3.697,2.772,8.774,1.12,15.092c-3.327,12.723-11.014,14.722-14.762,14.904
	c-2.207,4.478-8.194,15.98-13.954,21.356c-2.086,1.947-4.823,3.601-8.136,4.915C110.523,115.665,105.995,116.527,101.352,116.527z
	 M67.607,81.621c1.159,0,2.265,0.657,2.763,1.726c0.071,0.154,7.25,15.499,13.481,21.315c1.536,1.434,3.64,2.687,6.254,3.725
	c3.58,1.42,7.363,2.141,11.246,2.141s7.666-0.72,11.246-2.141c2.613-1.037,4.718-2.29,6.255-3.724
	c6.231-5.817,13.41-21.161,13.481-21.315c0.586-1.258,1.962-1.949,3.318-1.675c-0.001,0-0.001,0-0.001,0
	c0.008,0,0.253,0.036,0.636,0.036c2.555,0,7.195-1.356,9.57-10.437c1.173-4.485,1.072-8.018-0.29-10.216
	c-1.15-1.855-2.898-2.237-2.973-2.252c-1.542-0.257-2.573-1.645-2.441-3.203c0-0.006,0.075-0.93,0.082-2.467
	c-0.054-0.839-0.476-3.372-1.746-4.578c-1.536-1.227-10.882-3.03-19.92-4.774c-3.799-0.733-8.104-1.563-12.642-2.492
	c-0.005-0.001-0.011-0.002-0.017-0.003c-2.966-0.539-5.524-1.269-7.609-2.168c-7.623-2.815-12.868-6.852-16.056-9.932
	c-1.148,3.183-2.991,7.132-5.756,10.118c-4.905,5.298-10.839,8.103-13.849,9.278c-0.32,4.171-0.095,6.988-0.092,7.02
	c0.13,1.556-0.956,2.956-2.496,3.212c-0.02,0.006-1.768,0.388-2.918,2.243c-1.362,2.198-1.463,5.731-0.29,10.216
	c2.376,9.082,7.017,10.437,9.571,10.437c0.42,0,0.675-0.043,0.677-0.043C67.265,81.635,67.437,81.621,67.607,81.621z M80.888,20.096
	c0.995,0,1.942,0.496,2.504,1.348c0.045,0.067,5.311,7.753,17.061,12.071c0.057,0.021,0.111,0.042,0.166,0.066
	c1.687,0.736,3.847,1.345,6.419,1.81c0.038,0.007,0.075,0.014,0.113,0.022c4.485,0.918,8.772,1.746,12.556,2.476
	c13.641,2.632,19.751,3.875,22.437,5.91c0.278-1.97,0.479-4.125,0.489-6.279h0.001h-0.001l0,0h0.001h-0.001c0-0.004,0-0.009,0-0.014
	l0,0v0l0,0l0,0l0,0v0l0,0l0,0l0,0c0-0.003,0-0.007,0-0.01l0,0c0,0,0,0,0,0l0,0c0,0,0,0,0-0.001l0,0l0,0l0,0v0l0,0
	c0-0.003,0-0.006,0-0.009c0,0,0-0.001,0-0.002l0,0l0,0l0,0c0,0,0,0,0-0.001l0,0l0,0l0,0l0,0l0,0c0-0.002,0-0.004,0-0.006l0,0l0,0
	l0,0l0,0l0,0l0,0l0,0c0-0.001,0-0.002,0-0.004l0,0c0,0,0,0,0,0v0l0,0l0,0l0,0l0,0v0l0,0c0,0,0-0.001,0-0.002c0-0.003,0-0.006,0-0.01
	l0,0c0-0.003,0-0.006,0-0.009c0.007-2.415-0.227-4.557-0.692-6.374c-0.034-0.131-0.068-0.26-0.104-0.387
	c-0.073-0.259-0.16-0.53-0.259-0.812c-1.727-4.904-7.352-13.069-15.128-16.87c-0.123-0.056-0.242-0.12-0.357-0.192
	c-4.855-3.046-12.706-6.701-22.524-6.809c-0.008,0-0.017,0-0.024,0L102.787,6l0,0l0,0c-0.479,0-0.946,0.005-1.402,0.014v0
	c-0.006,0-0.01,0-0.016,0c-16.85,0.358-18.756,7.092-18.845,7.457c-0.013,0.076-0.027,0.152-0.045,0.228
	c-0.104,0.443-0.303,0.844-0.572,1.183c-0.206,0.259-0.45,0.478-0.722,0.653c-0.431,0.278-0.934,0.448-1.467,0.476
	c-0.319,0.018-0.638-0.016-0.954-0.103c-0.147-0.041-0.29-0.091-0.427-0.152c-0.209-0.083-1.667-0.63-3.67-0.63l0,0h-0.001l0,0
	c-0.002,0-0.002,0-0.004,0c-4.574,0.002-8.426,2.702-11.449,8.025c-0.002,0.003-0.004,0.006-0.006,0.009
	c0,0.001-0.001,0.001-0.001,0.002c-0.004,0.007-0.008,0.013-0.012,0.02c-0.006,0.011-0.012,0.021-0.018,0.032
	c-0.002,0.004-0.004,0.007-0.006,0.011c-0.002,0.002-0.003,0.004-0.004,0.006l0,0c-5.517,9.788-3.567,16.533-2.078,19.501
	c2.61-1.093,7.227-3.432,10.998-7.505c3.505-3.785,5.415-10.455,5.855-12.706c0.234-1.196,1.168-2.131,2.363-2.367
	C80.5,20.114,80.695,20.096,80.888,20.096z"/>
<g>
</g>
<g>
</g>
<g>
</g>
<g>
</g>
<g>
</g>
<g>
</g>
<g>
</g>
<g>
</g>
<g>
</g>
<g>
</g>
<g>
</g>
<g>
</g>
<g>
</g>
<g>
</g>
<g>
</g>
</svg>
